<svg width="56" height="56" viewBox="0 0 56 56" fill="currentColor" xmlns="http://www.w3.org/2000/svg">
  <path
    d="M31.6748 16.5116C31.547 16.5122 31.4223 16.472 31.3189 16.3969C31.2534 16.3501 31.1978 16.2907 31.1554 16.2222C31.1129 16.1538 31.0845 16.0776 31.0716 15.9981C31.0587 15.9186 31.0617 15.8374 31.0803 15.759C31.099 15.6807 31.133 15.6068 31.1803 15.5416C33.6681 12.0844 36.4843 10.1292 39.5744 9.72546C43.6671 9.19859 46.6647 11.6277 46.7896 11.732C46.8559 11.7815 46.9113 11.844 46.9527 11.9155C46.9941 11.9871 47.0205 12.0663 47.0304 12.1484C47.0402 12.2305 47.0333 12.3137 47.01 12.3931C46.9868 12.4724 46.9476 12.5462 46.895 12.6099C46.8423 12.6737 46.7773 12.7261 46.7038 12.764C46.6303 12.8019 46.5499 12.8244 46.4674 12.8303C46.3849 12.8362 46.3021 12.8253 46.224 12.7982C46.1458 12.7712 46.074 12.7285 46.0128 12.6729C45.9855 12.6506 43.2753 10.4696 39.7147 10.9383C36.9874 11.2958 34.45 13.0834 32.1709 16.2498C32.1153 16.33 32.0411 16.3957 31.9548 16.4412C31.8684 16.4868 31.7724 16.5109 31.6748 16.5116Z" />
  <path
    d="M12.5636 27.3569C12.4285 27.3563 12.2974 27.311 12.1908 27.228C12.0843 27.145 12.0082 27.0291 11.9746 26.8983C11.9409 26.7675 11.9516 26.6292 12.0049 26.5051C12.0583 26.381 12.1512 26.2781 12.2693 26.2125C16.9283 23.6465 21.8046 23.7902 22.0099 23.7971C22.1674 23.8089 22.3142 23.8812 22.4195 23.9989C22.5248 24.1166 22.5804 24.2705 22.5747 24.4283C22.5689 24.5861 22.5023 24.7356 22.3887 24.8453C22.2751 24.955 22.1234 25.0165 21.9655 25.0168C21.8919 25.0168 17.2004 24.8833 12.8579 27.2816C12.7678 27.3315 12.6665 27.3574 12.5636 27.3569Z" />
  <path
    d="M54.7688 31.0554C54.7403 30.9025 54.6545 30.7663 54.5288 30.6747C54.4032 30.5831 54.2472 30.543 54.0929 30.5627L53.9355 30.5815C54.0177 30.7714 54.0964 30.9664 54.1682 31.1683C54.3717 31.7157 54.4415 32.3039 54.3719 32.8837C54.3023 33.4636 54.0952 34.0185 53.7679 34.5023C53.6566 37.7303 52.5428 42.4037 47.2764 43.803C41.5531 45.3221 37.7633 44.0613 34.7194 43.0486C32.9468 42.4602 31.4189 41.9504 29.956 42.1933C27.6051 42.5748 25.8941 43.6285 24.0839 44.7439C21.6766 46.227 19.1871 47.7597 14.8566 47.7802H14.7248C7.75595 47.7802 3.67182 45.0039 2.55796 39.5247C2.13134 39.0264 1.83712 38.4287 1.70247 37.7867C1.66654 37.5814 1.63916 37.3796 1.62376 37.1829C1.46804 37.2026 1.32601 37.2818 1.22744 37.404C1.12888 37.5261 1.08144 37.6817 1.09507 37.838C1.69734 45.1424 6.41282 48.9999 14.7334 48.9999H14.8668C19.5412 48.976 22.2976 47.279 24.729 45.7805C26.4399 44.7302 28.0448 43.738 30.1562 43.3959C31.3231 43.206 32.6543 43.6491 34.3379 44.2102C37.368 45.2177 41.524 46.605 47.5946 44.9851C56.8049 42.5337 54.7893 31.17 54.7688 31.0554Z" />
  <path
    d="M5.78631 31.1786C6.9282 29.039 8.57211 27.2081 10.5771 25.8431C14.3857 23.2378 17.9925 22.8239 20.6257 22.5211C22.4103 22.3158 23.8201 22.155 24.7937 21.4314C27.018 19.7755 27.9727 18.0495 28.9001 16.3816C29.9266 14.5307 30.9806 12.6182 33.8893 10.586C36.1136 9.02929 38.5894 8.22528 41.0532 8.22528C41.99 8.22345 42.9235 8.33838 43.8319 8.56741C46.7097 9.29956 49.1992 11.1607 50.3336 13.4239C52.0908 16.9393 52.2961 20.2767 50.9444 23.3456C50.5066 24.322 49.936 25.2332 49.2488 26.0535C49.6368 26.2151 50.0144 26.4002 50.3798 26.6078C51.0546 25.7589 51.6196 24.8284 52.0617 23.8383C53.5451 20.47 53.3261 16.681 51.4269 12.8799C50.1403 10.314 47.3479 8.20305 44.1364 7.38708C40.4492 6.44965 36.5636 7.22799 33.1861 9.58011C30.0447 11.7731 28.9189 13.8139 27.829 15.788C26.9307 17.4131 26.0838 18.9475 24.0648 20.4461C23.3565 20.9747 22.0886 21.1201 20.4854 21.3014C17.7256 21.6196 13.946 22.0524 9.88755 24.8287C7.25091 26.6334 5.04887 29.3055 3.96924 32.2888C4.53629 31.8589 5.14502 31.487 5.78631 31.1786Z" />
  <path
    d="M13.226 44.0203C6.30329 44.0203 1.61347 40.7855 1.09675 37.8911C0.754554 35.9821 1.22165 34.2868 2.47752 32.8516C5.40673 29.509 11.8743 28.5374 15.505 28.6982C16.7934 28.7546 17.9123 28.8881 18.9937 29.0164C22.26 29.4064 24.8401 29.7126 29.4153 27.499C33.8382 25.3573 43.1751 22.9111 49.3945 25.4634C52.0312 26.5428 53.8294 28.3937 54.7431 30.9631C54.9721 31.5752 55.0566 32.232 54.9898 32.8822C54.923 33.5323 54.7068 34.1582 54.3581 34.7111C52.5941 37.6636 47.7434 39.3572 44.1247 39.9114C39.4092 40.6333 35.7409 40.1013 33.0751 39.7113C31.4736 39.4786 30.2092 39.2956 29.3007 39.4581C26.854 39.8943 25.516 40.5922 24.0976 41.3398C22.3986 42.2259 20.6397 43.1428 16.9713 43.7347C15.7323 43.9278 14.48 44.0233 13.226 44.0203ZM14.6512 29.899C10.6526 29.899 5.58296 31.1529 3.39632 33.6624C2.90998 34.1993 2.55708 34.8433 2.36623 35.542C2.17538 36.2408 2.15195 36.9747 2.29786 37.6842C2.81116 40.5135 8.69525 43.8048 16.7797 42.5184C20.253 41.9659 21.9212 41.0969 23.5347 40.2552C24.9702 39.5077 26.4553 38.7328 29.0851 38.2623C30.1887 38.0656 31.5404 38.2624 33.2514 38.5121C35.8486 38.8884 39.4109 39.4068 43.9399 38.7122C47.5604 38.158 51.8635 36.5141 53.311 34.0935C53.5668 33.6948 53.7256 33.2417 53.7746 32.7705C53.8237 32.2994 53.7616 31.8233 53.5933 31.3805C52.8011 29.1566 51.2321 27.5435 48.9309 26.6009C43.0776 24.2061 34.1804 26.5565 29.9389 28.6058C25.042 30.9767 22.1693 30.6329 18.8414 30.2377C17.7806 30.1112 16.6839 29.9812 15.4417 29.9247C15.1902 29.9042 14.9215 29.899 14.6512 29.899Z" />
  <path
    d="M12.6661 41.7469C9.29548 41.7469 6.7923 40.9617 5.19937 39.3982C4.73912 38.9466 4.12658 37.6722 4.4414 36.1736C4.71687 34.8616 5.81019 33.0107 9.40327 31.6405C16.6236 28.9034 23.3581 31.9244 24.8022 34.2492C25.0814 34.6745 25.2442 35.1656 25.2742 35.6735C25.3043 36.1814 25.2005 36.6883 24.9733 37.1436C23.9741 39.2374 20.5076 40.9497 16.1411 41.5091C14.989 41.6616 13.8283 41.741 12.6661 41.7469ZM15.2326 31.7927C13.3897 31.7906 11.5619 32.1257 9.83957 32.7815C7.39286 33.7103 5.93852 34.9694 5.63396 36.4234C5.41325 37.4823 5.87008 38.3479 6.05144 38.5275C7.87365 40.3134 11.2169 40.9018 15.9991 40.298C19.9019 39.7985 23.0707 38.3205 23.8834 36.6167C24.0216 36.3455 24.0841 36.0419 24.0642 35.7382C24.0443 35.4344 23.9429 35.1416 23.7704 34.8907C22.9885 33.6402 19.5597 31.7927 15.2258 31.7927H15.2326Z" />
  <path
    d="M39.1656 38.2488C38.3172 38.252 37.4698 38.188 36.6316 38.0572C31.3754 37.2155 29.543 35.3783 28.9321 33.9859C28.7066 33.4984 28.6093 32.9615 28.6494 32.4259C28.6896 31.8904 28.8658 31.3739 29.1614 30.9255C31.2505 27.7728 36.736 26.1238 43.1368 26.7276C47.7239 27.1604 49.7515 28.5666 50.6429 29.6699C51.2691 30.4448 51.5463 31.3156 51.4436 32.188C51.3153 33.2794 50.5881 34.3519 49.3545 35.2876C46.9317 37.1197 42.8818 38.2488 39.1656 38.2488ZM40.6011 27.8276C35.7727 27.8276 31.7399 29.244 30.1777 31.591C29.9968 31.8699 29.8901 32.1903 29.8676 32.522C29.8452 32.8537 29.9077 33.1856 30.0494 33.4864C30.4498 34.3998 31.8631 36.0523 36.8249 36.8426C40.7277 37.4687 45.9103 36.3534 48.6171 34.3057C49.5855 33.5753 50.1433 32.7901 50.2305 32.0374C50.2545 31.747 50.2193 31.4547 50.127 31.1783C50.0346 30.9019 49.8871 30.6471 49.6933 30.4294C49.0842 29.6751 47.4057 28.3476 43.0204 27.9336C42.1991 27.8652 41.3899 27.8276 40.6011 27.8276Z" />
  <path
    d="M7.41481 37.1556C7.29723 37.1553 7.18225 37.121 7.08366 37.057C6.98507 36.9929 6.90706 36.9018 6.85901 36.7945C6.81096 36.6872 6.79489 36.5683 6.81275 36.4522C6.83061 36.336 6.88163 36.2274 6.95968 36.1395C7.09143 35.9924 10.2636 32.5266 16.1203 32.6891C16.2772 32.7006 16.4235 32.7721 16.529 32.8887C16.6344 33.0054 16.6908 33.1582 16.6864 33.3153C16.682 33.4725 16.6171 33.6219 16.5053 33.7325C16.3935 33.843 16.2433 33.9062 16.0861 33.9088C10.8077 33.7651 7.89731 36.923 7.87335 36.9555C7.81559 37.0196 7.7448 37.0706 7.66572 37.1051C7.58664 37.1396 7.50109 37.1568 7.41481 37.1556Z" />
  <path
    d="M31.7162 33.3032C31.601 33.3029 31.4882 33.2699 31.3909 33.2081C31.2936 33.1464 31.2157 33.0583 31.1663 32.9542C31.1169 32.8501 31.098 32.7341 31.1118 32.6197C31.1255 32.5053 31.1714 32.3971 31.244 32.3077C31.3826 32.1366 34.7071 28.2021 41.9702 28.8864C42.1261 28.9083 42.2676 28.9896 42.365 29.1133C42.4624 29.237 42.5083 29.3935 42.4931 29.5502C42.4779 29.7069 42.4027 29.8517 42.2833 29.9543C42.1638 30.0569 42.0094 30.1094 41.8521 30.1009C35.2734 29.468 32.31 32.9303 32.1868 33.0774C32.1299 33.1475 32.0582 33.2041 31.9768 33.2431C31.8955 33.2822 31.8065 33.3027 31.7162 33.3032Z" />
</svg>