<svg width="56" height="58" viewBox="0 0 56 58" fill="currentColor" stroke="currentColor"
  xmlns="http://www.w3.org/2000/svg">
  <path
    d="M25.1972 30.1374C23.7707 30.1374 22.4805 30.1584 21.1932 30.1284C20.5423 30.1149 20.3737 30.3727 20.4074 31.0278C20.6298 35.6373 21.5569 40.1827 23.1549 44.499C23.7839 46.1823 24.5448 47.8147 25.2441 49.4695L25.5066 49.4051C25.4039 42.9655 25.2998 36.526 25.1972 30.1374ZM25.0902 29.5678C26.1751 29.4179 26.332 27.8125 25.335 26.6538C24.7046 25.9193 24.3234 25.4246 22.7546 24.0291C20.5555 22.2213 18.1202 21.4239 15.3903 22.5541C12.5914 23.7113 10.5521 25.8803 8.7282 28.2502C8.03179 29.1495 8.33821 30.0489 9.44807 30.3143C10.6415 30.6065 11.9082 30.8164 13.1222 30.7355C15.0633 30.605 16.9869 30.1913 18.9207 29.9335C19.1861 29.8975 19.4779 30.0624 19.7564 30.1344C19.5248 30.3442 19.3239 30.626 19.0541 30.7519C18.5412 30.9828 18.0094 31.1669 17.4649 31.3021C16.937 31.4385 16.767 31.7068 16.8593 32.2659C17.0279 33.2732 17.1408 34.291 17.2596 35.3058C17.9428 41.2117 19.5174 46.8359 22.2826 52.0942C22.9218 53.3084 23.6241 54.4566 24.6899 55.356C26.7279 57.0783 28.7262 56.5552 30.2407 54.6904C30.8579 53.926 31.3432 53.0416 31.8725 52.2082C34.4162 48.1744 36.7547 44.0223 38.2633 39.4549C38.9407 37.4044 39.4289 35.2863 39.9714 33.1908C40.118 32.6257 40.3159 32.3693 40.9244 32.6062C41.4288 32.7931 41.947 32.9385 42.4741 33.0409C43.7936 33.3182 45.097 33.624 46.4224 33.8068C47.302 33.9268 47.6275 33.609 47.6026 32.7216C47.5835 32.0111 47.5087 31.2526 47.2478 30.605C45.5867 26.4799 42.7028 23.9197 38.2164 23.6424C35.2255 23.4565 32.6334 24.4923 30.6219 26.7977C29.1074 28.5335 29.3947 29.5992 31.5192 30.4102C33.9268 31.3077 36.4297 31.9114 38.9759 32.2089C39.2033 32.2603 39.4249 32.3357 39.6371 32.4338C39.6371 32.5087 39.6268 32.5837 39.621 32.6586C39.4099 32.7404 39.1933 32.8066 38.973 32.8565C38.3704 32.9509 37.7649 33.0364 37.1579 33.0903C36.7562 33.1263 36.5597 33.3032 36.4849 33.7169C35.5012 39.1611 33.2595 44.0448 30.1234 48.5237C29.924 48.807 29.6235 49.0184 29.3698 49.2627C29.1851 48.9059 28.9989 48.5507 28.8171 48.1924C28.8008 48.1443 28.7938 48.0934 28.7966 48.0425C28.6499 46.1029 28.4227 44.1662 28.3567 42.2235C28.104 34.0096 28.2547 25.788 28.8083 17.5895C28.8464 17.0124 29.1015 16.7681 29.6264 16.7756C30.5061 16.7861 31.3857 16.8146 32.2654 16.8535C34.9045 16.9689 37.5317 17.2433 40.1561 16.7561C42.3788 16.3439 42.7101 15.7293 41.8788 13.6083C41.851 13.5378 41.8231 13.4689 41.7923 13.4014C40.0491 9.47262 37.4277 6.28432 34.0394 3.72708C29.0546 -0.0368236 23.4657 1.17884 19.5937 4.44808C17.198 6.47019 15.4885 9.04392 13.974 11.7675C13.4638 12.701 13.0411 13.6817 12.7117 14.6965C12.4507 15.482 12.7527 15.9736 13.4946 16.3154C13.7985 16.4737 14.1277 16.5753 14.4666 16.6152C16.5837 16.7441 18.7023 16.9045 20.8223 16.9255C23.0435 16.9465 25.2661 16.8131 27.4873 16.7756C27.8377 16.7756 28.1896 16.915 28.54 16.9899C28.5473 17.0814 28.5532 17.1713 28.559 17.2613C28.3028 17.4183 28.0328 17.5508 27.7527 17.657C27.2644 17.8168 26.7605 17.9213 26.2499 17.9688C25.6224 18.0047 25.4875 18.33 25.4919 18.8891C25.5022 20.3626 25.4758 21.8361 25.4772 23.3096C25.4772 24.7351 25.3409 26.1471 26.269 27.4452C26.8363 28.2382 26.5622 29.0656 25.9933 29.6217C25.7666 29.8455 25.6256 30.1449 25.596 30.4656C25.5843 32.1895 25.6253 33.9133 25.6532 35.6356C25.7255 40.1325 25.7974 44.6294 25.8687 49.1263C25.876 49.6015 25.8115 50.0766 25.7793 50.5518L25.5476 50.5968C25.4122 50.4119 25.2874 50.2192 25.1738 50.0197C24.7823 49.2417 24.385 48.4682 24.0272 47.6753C21.66 42.4269 20.303 36.7616 20.0306 30.9888C19.9763 29.9275 20.0306 29.8511 21.1023 29.7746C22.1491 29.6997 23.2003 29.6922 24.2501 29.6472C24.536 29.6352 24.8204 29.5947 25.0902 29.5678Z"
    stroke-width="0.65" fill="none" />
</svg>