<svg width="56" height="56" viewBox="0 0 56 56" fill="currentColor" stroke="currentColor"
  xmlns="http://www.w3.org/2000/svg">
  <path
    d="M25.2891 49.9566H19.1019C18.8625 49.9561 18.633 49.8609 18.4637 49.6916C18.2944 49.5224 18.1991 49.2929 18.1986 49.0536V45.243H19.0536C18.4453 44.8387 17.8073 44.4431 17.1396 44.0562C17.058 44.1172 16.9917 44.1964 16.946 44.2875C16.9002 44.3786 16.8764 44.4791 16.8762 44.581V49.0536C16.8762 49.6437 17.1107 50.2097 17.5281 50.627C17.9455 51.0443 18.5116 51.2788 19.1019 51.2788H27.4888C26.9157 51.1211 26.1849 50.639 25.2891 49.9566Z" />
  <path
    d="M37.1128 45.2429H37.5301V49.0536C37.5296 49.2929 37.4343 49.5223 37.265 49.6916C37.0957 49.8608 36.8663 49.9561 36.6269 49.9566H30.6084C29.6477 50.6408 28.865 51.1211 28.2622 51.2787H36.6269C37.2172 51.2787 37.7832 51.0443 38.2006 50.627C38.618 50.2097 38.8525 49.6437 38.8525 49.0536V44.5809C38.8538 44.4489 38.815 44.3196 38.7412 44.2101C38.1811 44.555 37.6358 44.898 37.1128 45.2429Z" />
  <path
    d="M27.8632 52C26.7616 52 25.4225 50.9282 23.3953 49.3057C20.7153 47.1603 17.0429 44.2212 12.217 42.4633C8.93422 41.2672 5.75526 37.859 4.11942 33.7814C2.66348 30.1506 1.68605 24.2873 5.299 16.9683C8.01613 11.4629 12.3469 7.62627 18.1725 5.56242C21.2119 4.50098 24.412 3.97276 27.6314 4.00108H27.8874C32.7226 3.96956 44.6093 5.16746 50.4331 16.9683C53.3505 22.8762 53.9681 28.5337 52.221 33.3252C50.7539 37.3509 47.5954 40.6757 43.554 42.4484C39.1027 44.3973 35.5083 47.1139 32.8802 49.098C30.56 50.8485 29.0317 52 27.8632 52ZM27.4163 5.32321C22.7795 5.32321 11.9054 6.57116 6.48601 17.5617C3.08821 24.443 3.99144 29.9188 5.34723 33.2992C7.17225 37.8479 10.4328 40.4143 12.6696 41.2302C17.6995 43.0622 21.4701 46.0792 24.2225 48.2765C25.7674 49.5134 27.2271 50.6872 27.8632 50.6872C28.5866 50.6872 30.2057 49.467 32.079 48.0522C34.759 46.031 38.4313 43.2606 43.0217 41.2487C46.7311 39.6187 49.6337 36.5703 50.9783 32.8839C52.5993 28.4335 52.0003 23.1413 49.246 17.5635C43.8229 6.57487 32.7689 5.32506 28.0728 5.32506H27.42L27.4163 5.32321Z" />
  <path
    d="M31.1683 40.507C31.0972 40.5066 31.0265 40.4954 30.9588 40.4736C30.7925 40.4174 30.6553 40.2976 30.5771 40.1406C30.4989 39.9835 30.4861 39.8019 30.5414 39.6355L38.9154 14.5262C38.9411 14.4415 38.9835 14.3628 39.0401 14.2948C39.0967 14.2268 39.1664 14.1709 39.245 14.1303C39.3236 14.0896 39.4096 14.0652 39.4978 14.0583C39.586 14.0515 39.6747 14.0624 39.7587 14.0904C39.8426 14.1184 39.9201 14.163 39.9865 14.2214C40.0529 14.2799 40.107 14.3511 40.1454 14.4308C40.1839 14.5105 40.2059 14.5971 40.2103 14.6854C40.2147 14.7738 40.2014 14.8621 40.171 14.9453L31.7971 40.0545C31.7528 40.1862 31.6683 40.3008 31.5555 40.3819C31.4427 40.4631 31.3073 40.5068 31.1683 40.507Z" />
  <path
    d="M34.4062 41.7623C34.2772 41.7624 34.151 41.7249 34.0431 41.6544C33.9351 41.5839 33.8501 41.4833 33.7985 41.3652C33.7469 41.247 33.7309 41.1164 33.7525 40.9892C33.7742 40.8621 33.8325 40.7441 33.9202 40.6497L47.7934 25.5815C47.9141 25.4607 48.077 25.3913 48.2478 25.3877C48.4186 25.3842 48.5842 25.4468 48.7099 25.5624C48.8356 25.678 48.9117 25.8378 48.9224 26.0083C48.9331 26.1788 48.8774 26.3467 48.7671 26.4771L34.8921 41.5453C34.8306 41.6132 34.7556 41.6675 34.672 41.7049C34.5883 41.7422 34.4978 41.7618 34.4062 41.7623Z" />
  <path
    d="M24.4415 40.507C24.3026 40.5066 24.1673 40.4627 24.0545 40.3816C23.9418 40.3004 23.8573 40.1861 23.8128 40.0545L15.4388 14.9453C15.4085 14.8621 15.3951 14.7738 15.3995 14.6854C15.4039 14.5971 15.426 14.5105 15.4644 14.4308C15.5029 14.3511 15.5569 14.2799 15.6233 14.2214C15.6897 14.163 15.7672 14.1184 15.8512 14.0904C15.9351 14.0624 16.0238 14.0515 16.112 14.0583C16.2003 14.0652 16.2862 14.0896 16.3648 14.1303C16.4435 14.1709 16.5131 14.2268 16.5697 14.2948C16.6263 14.3628 16.6688 14.4415 16.6944 14.5262L25.0684 39.6355C25.096 39.7179 25.1072 39.8049 25.1012 39.8917C25.0951 39.9784 25.0721 40.0631 25.0334 40.1409C24.9946 40.2188 24.9409 40.2882 24.8753 40.3453C24.8097 40.4024 24.7335 40.446 24.6511 40.4736C24.5833 40.4954 24.5127 40.5066 24.4415 40.507Z" />
  <path
    d="M21.2036 41.7624C21.1122 41.7624 21.0219 41.7434 20.9382 41.7067C20.8546 41.67 20.7795 41.6163 20.7176 41.5491L6.84266 26.4809C6.73232 26.3505 6.67667 26.1826 6.68733 26.0121C6.69799 25.8416 6.77415 25.6819 6.89987 25.5662C7.0256 25.4506 7.19116 25.388 7.36196 25.3916C7.53276 25.3951 7.69558 25.4645 7.81638 25.5853L21.6895 40.6535C21.7773 40.7479 21.8356 40.866 21.8572 40.9931C21.8788 41.1202 21.8628 41.2508 21.8112 41.369C21.7596 41.4872 21.6746 41.5877 21.5667 41.6582C21.4587 41.7288 21.3325 41.7662 21.2036 41.7661V41.7624Z" />
  <path
    d="M27.7478 39.9671C27.5722 39.9671 27.4038 39.8974 27.2796 39.7733C27.1554 39.6491 27.0857 39.4807 27.0857 39.3052V11.4905C27.0947 11.3212 27.1682 11.1618 27.2912 11.0452C27.4143 10.9285 27.5773 10.8635 27.7469 10.8635C27.9164 10.8635 28.0795 10.9285 28.2025 11.0452C28.3255 11.1618 28.3991 11.3212 28.4081 11.4905V39.3052C28.4083 39.392 28.3914 39.4781 28.3584 39.5584C28.3253 39.6387 28.2767 39.7117 28.2154 39.7732C28.154 39.8347 28.0811 39.8834 28.0009 39.9167C27.9207 39.95 27.8347 39.9671 27.7478 39.9671Z" />
</svg>