<svg width="56" height="56" viewBox="0 0 56 56" fill="currentColor" xmlns="http://www.w3.org/2000/svg">
  <path
    d="M16.5837 31.1168H16.4937C12.553 31.0472 10.5101 28.0589 10.4245 22.2331C10.3853 19.5059 11.1877 17.2212 12.746 15.6241C14.1242 14.2247 15.9872 13.4079 17.9505 13.3422C20.2836 13.3248 22.1945 14.1023 23.4756 15.6052C24.9832 17.375 25.5577 20.0848 25.0528 23.0412C24.2286 27.8253 19.9557 31.1154 16.5837 31.1168ZM17.9621 14.3765C16.2726 14.434 14.67 15.1388 13.4859 16.345C12.1046 17.7608 11.4227 19.7351 11.4546 22.2157C11.5315 27.4496 13.1841 30.0231 16.5068 30.0811H16.5721C19.1925 30.0811 23.258 27.367 24.027 22.8656C24.4797 20.2124 23.9907 17.8102 22.682 16.2754C21.6068 15.0148 20.05 14.3751 18.0506 14.3751L17.9621 14.3765Z" />
  <path
    d="M28.1027 44C28.0084 44 27.9127 44 27.8126 43.9913C26.231 43.9115 24.7061 43.0281 23.5178 41.5049C21.7201 39.1999 20.9337 35.8097 21.5141 32.8678C22.3005 28.8902 24.9963 27.0087 29.3216 27.4294C30.8741 27.5745 32.3859 28.426 33.4698 29.7504C34.4143 30.9109 35.4706 32.9578 35.1398 36.1898C34.6131 41.3715 31.2513 44 28.1027 44ZM27.8706 42.9584C30.6114 43.1035 33.6323 40.7825 34.1096 36.0824C34.3998 33.2044 33.4886 31.4056 32.6688 30.4047C31.7591 29.292 30.5026 28.5841 29.2214 28.4593C25.4577 28.0923 23.2073 29.6445 22.5297 33.0695C22.0045 35.7285 22.7125 38.7893 24.3332 40.8681C25.3344 42.1504 26.5894 42.899 27.8663 42.9584H27.8706Z" />
  <path
    d="M38.8961 28.4056C35.8869 28.4056 31.4397 25.9599 29.9641 23.1587C29.0109 21.3483 29.1023 18.6617 30.2006 16.303C31.2076 14.1415 32.8994 12.659 34.8436 12.2412C38.3258 11.4869 40.7736 12.6445 42.21 13.7499C44.1789 15.2672 45.4674 17.6303 45.5704 19.9194C45.7271 23.4169 43.0399 26.9884 40.4326 28.1286C39.9449 28.3253 39.4219 28.4196 38.8961 28.4056ZM35.0583 13.2494C33.4376 13.6019 32.0114 14.8741 31.1408 16.7411C30.1905 18.7792 30.0875 21.1641 30.884 22.6756C32.4888 25.722 37.9269 28.0894 40.0162 27.1726C42.2623 26.1905 44.6708 22.9861 44.5344 19.9586C44.4459 17.9959 43.2852 15.8779 41.576 14.5637C40.3137 13.5917 38.1604 12.5734 35.0612 13.245L35.0583 13.2494Z" />
  <path
    d="M13.1215 24.6021C12.9988 24.6016 12.8803 24.5576 12.787 24.4779C12.6938 24.3982 12.6318 24.288 12.6122 24.1669C11.5269 17.9379 16.4166 15.7953 16.4659 15.775C16.5911 15.728 16.7296 15.7312 16.8524 15.784C16.9752 15.8367 17.0729 15.9349 17.125 16.058C17.1771 16.1811 17.1796 16.3196 17.1319 16.4444C17.0843 16.5693 16.9902 16.6709 16.8693 16.728C16.6894 16.8049 12.692 18.595 13.6322 23.9812C13.6554 24.1166 13.624 24.2557 13.5449 24.3679C13.4657 24.4802 13.3454 24.5566 13.21 24.5803C13.1811 24.5898 13.1515 24.5971 13.1215 24.6021Z" />
  <path
    d="M24.1604 38.0016C24.041 38.001 23.9254 37.9593 23.8332 37.8834C23.7409 37.8076 23.6777 37.7023 23.654 37.5853C22.5121 31.8959 26.627 29.7867 26.6691 29.7664C26.7303 29.7326 26.7977 29.7115 26.8673 29.7045C26.9369 29.6974 27.0072 29.7046 27.0739 29.7254C27.1407 29.7463 27.2025 29.7804 27.2557 29.8258C27.3089 29.8712 27.3523 29.9269 27.3834 29.9896C27.4145 30.0522 27.4326 30.1205 27.4366 30.1903C27.4405 30.2601 27.4303 30.33 27.4066 30.3958C27.3828 30.4615 27.3459 30.5218 27.2982 30.5729C27.2505 30.6241 27.1929 30.665 27.129 30.6933C26.9839 30.7673 23.6888 32.4979 24.6697 37.3822C24.6962 37.5168 24.6683 37.6564 24.5922 37.7706C24.5161 37.8848 24.3979 37.9641 24.2634 37.9915C24.2294 37.9977 24.1949 38.0011 24.1604 38.0016Z" />
  <path
    d="M31.7314 21.2264C31.5959 21.2111 31.4719 21.1429 31.3863 21.0367C31.3008 20.9305 31.2606 20.7949 31.2744 20.6592C31.8678 14.8857 36.4238 14.0907 36.4702 14.0835C36.5971 14.0777 36.7217 14.1187 36.8203 14.1987C36.9189 14.2788 36.9847 14.3922 37.0051 14.5176C37.0255 14.6429 36.9992 14.7714 36.931 14.8786C36.8629 14.9858 36.7578 15.0642 36.6356 15.0989C36.476 15.125 32.8138 15.8025 32.3046 20.7564C32.2903 20.893 32.2224 21.0183 32.1157 21.1048C32.0091 21.1913 31.8724 21.2319 31.7358 21.2177L31.7314 21.2264Z" />
</svg>