<svg width="56" height="56" viewBox="0 0 56 56" fill="currentColor" xmlns="http://www.w3.org/2000/svg">
  <path
    d="M11.0719 26.2878C9.46007 26.2878 8.01703 25.6243 6.84326 24.3294C3.74103 20.9055 4.62845 16.6664 9.34248 12.3856C14.5969 7.61949 24.7968 3.27233 26.9926 5.68952C27.6715 6.43648 27.6999 7.80338 27.0741 9.75041C25.2405 15.4683 18.2851 24.8659 12.4352 26.1305C11.9878 26.232 11.5307 26.2848 11.0719 26.2878ZM24.939 6.31894C22.1724 6.31894 15.0786 9.00914 10.2508 13.3923C7.3742 16.001 4.62089 19.859 7.84637 23.4194C9.03152 24.7275 10.4385 25.1825 12.1489 24.8128C17.4584 23.664 24.0952 14.636 25.7866 9.34281C26.3043 7.72376 26.2208 6.85546 25.9914 6.60332C25.8169 6.41373 25.4528 6.31894 24.939 6.31894Z" />
  <path
    d="M15.6271 12.6758C15.4837 12.6754 15.344 12.6296 15.2284 12.5448C15.1127 12.46 15.0269 12.3406 14.9835 12.204C14.94 12.0673 14.9411 11.9204 14.9866 11.7844C15.032 11.6484 15.1196 11.5303 15.2365 11.4472C15.3806 11.3468 18.7729 8.96559 22.2525 7.97407C22.3378 7.94917 22.4272 7.94132 22.5155 7.95095C22.6038 7.96058 22.6894 7.98751 22.7673 8.0302C22.8452 8.07289 22.914 8.1305 22.9696 8.19975C23.0253 8.26901 23.0667 8.34855 23.0916 8.43382C23.1165 8.51909 23.1244 8.60842 23.1147 8.69673C23.1051 8.78504 23.0782 8.87059 23.0355 8.94849C22.9928 9.02639 22.9351 9.09511 22.8659 9.15074C22.7966 9.20637 22.7171 9.24783 22.6318 9.27272C19.3835 10.2017 16.0632 12.5279 16.031 12.5525C15.913 12.6357 15.7714 12.6789 15.6271 12.6758Z" />
  <path
    d="M31.0846 21.1615C30.924 21.1613 30.7686 21.104 30.6464 20.9998C30.5241 20.8956 30.4428 20.7513 30.4172 20.5928C30.06 18.2551 30.1068 15.8735 30.5556 13.5516C30.5748 13.4645 30.6109 13.382 30.662 13.3088C30.7131 13.2356 30.7781 13.1732 30.8532 13.1252C30.9284 13.0771 31.0123 13.0443 31.1002 13.0287C31.1881 13.0131 31.2781 13.0149 31.3653 13.0341C31.4524 13.0532 31.535 13.0894 31.6082 13.1404C31.6814 13.1915 31.7438 13.2565 31.7918 13.3316C31.8399 13.4068 31.8727 13.4907 31.8883 13.5785C31.904 13.6664 31.9022 13.7564 31.883 13.8436C31.4787 15.9993 31.4371 18.2073 31.7597 20.3766C31.7741 20.4643 31.771 20.5539 31.7506 20.6404C31.7302 20.7268 31.693 20.8084 31.641 20.8804C31.589 20.9525 31.5234 21.0135 31.4477 21.0601C31.3721 21.1068 31.288 21.138 31.2003 21.152C31.1621 21.1584 31.1234 21.1616 31.0846 21.1615Z" />
  <path
    d="M36.3149 35.716C36.55 35.2294 36.8028 34.7441 37.0734 34.26C32.786 35.0733 30.7305 31.0371 29.7558 27.435C27.7382 19.9692 29.2837 10.7649 30.8803 10.3326C31.2102 10.2435 32.018 10.5639 33.2259 11.7621C36.66 15.1746 40.917 23.2205 41.027 28.7109C41.2533 28.4492 41.4808 28.1965 41.7096 27.9525C41.8955 27.749 42.0851 27.5506 42.2785 27.3572C41.6016 21.5787 37.5929 14.1982 34.1873 10.8085C32.7367 9.36572 31.506 8.76853 30.5333 9.03016C27.3817 9.88518 26.6062 20.9417 28.4588 27.799C29.8601 32.9917 32.4864 35.7368 35.9584 35.7368C36.0741 35.7274 36.1935 35.7217 36.3149 35.716Z" />
  <path
    d="M40.4519 48.2643C39.5656 48.2551 38.6921 48.0506 37.8939 47.6652C33.7089 45.7068 32.8879 41.4544 35.5805 35.6911C38.5842 29.2604 46.3075 21.3111 49.2675 22.6894C50.1834 23.116 50.7371 24.3653 50.9134 26.4034C51.4349 32.3847 48.6569 43.7408 43.7495 47.1704C42.7909 47.8691 41.6382 48.2515 40.4519 48.2643ZM48.4161 23.861C46.4573 23.861 39.9096 29.6282 36.8093 36.2636C35.1653 39.7823 34.1204 44.4044 38.4704 46.4386C40.0708 47.1969 41.5442 47.0642 42.9796 46.0594C47.4395 42.9427 50.0525 32.0568 49.5709 26.519C49.423 24.826 49.002 24.0544 48.7005 23.9141C48.6109 23.8755 48.5137 23.8574 48.4161 23.861Z" />
  <path
    d="M42.3875 32.2369C42.2652 32.2364 42.1453 32.203 42.0405 32.1402C41.9641 32.0948 41.8975 32.0347 41.8445 31.9634C41.7915 31.8921 41.7532 31.811 41.7317 31.7248C41.7102 31.6386 41.706 31.5491 41.7192 31.4612C41.7325 31.3734 41.7631 31.2891 41.8091 31.2131C43.0428 29.1955 44.6143 27.4051 46.4549 25.92C46.598 25.8195 46.7744 25.7783 46.9472 25.805C47.12 25.8317 47.2757 25.9242 47.3819 26.0631C47.488 26.202 47.5362 26.3766 47.5165 26.5503C47.4967 26.724 47.4105 26.8833 47.2759 26.9949C45.576 28.3828 44.1198 30.045 42.9677 31.9127C42.9071 32.0121 42.8218 32.0941 42.7201 32.1509C42.6185 32.2077 42.5039 32.2373 42.3875 32.2369Z" />
  <path
    d="M17.8529 51C17.4068 50.9979 16.9621 50.9509 16.5255 50.8597C12.0011 49.9269 10.2149 45.9817 11.4948 39.7501C12.9227 32.7999 18.5943 23.2714 21.7875 23.9274C22.7774 24.1283 23.606 25.2166 24.2526 27.1503C26.1489 32.8473 26.0844 44.539 22.108 49.0131C20.9418 50.3269 19.4912 51 17.8529 51ZM21.4064 25.2412C19.6619 25.2412 14.3411 32.6084 12.8184 40.0287C12.0371 43.8337 12.0921 48.5733 16.8005 49.5421C18.5279 49.8985 19.9349 49.4359 21.0973 48.1278C24.7134 44.046 24.7229 32.8606 22.967 27.5826C22.4304 25.9711 21.8501 25.3208 21.5145 25.2507C21.4788 25.2445 21.4427 25.2414 21.4064 25.2412Z" />
  <path
    d="M17.0243 34.8229C16.94 34.8235 16.8564 34.808 16.7779 34.7774C16.6117 34.7111 16.4786 34.5818 16.4075 34.4177C16.3365 34.2536 16.3333 34.068 16.3986 33.9015C17.2779 31.7062 18.5273 29.6779 20.0925 27.905C20.2169 27.7833 20.3834 27.7142 20.5575 27.7121C20.7315 27.7099 20.8997 27.7749 21.0271 27.8935C21.1545 28.0121 21.2313 28.1752 21.2416 28.3489C21.2518 28.5226 21.1948 28.6936 21.0823 28.8264C19.6387 30.4782 18.4813 32.3595 17.6577 34.3925C17.6079 34.5198 17.5208 34.629 17.4077 34.7059C17.2947 34.7827 17.161 34.8235 17.0243 34.8229Z" />
</svg>