<svg width="56" height="56" viewBox="0 0 56 56" fill="currentColor" xmlns="http://www.w3.org/2000/svg">
  <path
    d="M27.9463 56C27.5272 56 27.1982 55.7506 27.1982 55.4427V19.6543C27.1982 19.3463 28.6944 19.3463 28.6944 19.6543V55.4427C28.6944 55.7506 28.3592 56 27.9463 56Z" />
  <path
    d="M31.5068 26.8928C29.0927 26.8928 27.8941 25.531 27.8123 25.4262C27.7787 25.386 27.7493 25.3425 27.7243 25.2963C27.6279 25.1141 25.436 20.8149 32.3617 16.3629C38.9752 12.114 44.1092 13.2202 44.323 13.2621C44.5013 13.3026 44.6587 13.4071 44.7652 13.5557C44.8718 13.7043 44.9202 13.8869 44.9013 14.0687C44.8762 14.3013 44.2329 19.8093 37.8268 24.4038C35.1844 26.3125 33.0868 26.8928 31.5068 26.8928ZM29.0089 24.5274C29.407 24.9108 31.842 26.8698 36.9551 23.2012C41.5066 19.935 42.8813 16.1827 43.271 14.6407C41.7203 14.5255 37.8415 14.6302 33.1706 17.6304C27.8731 21.0349 28.8035 24.0267 29.0089 24.5274Z" />
  <path
    d="M24.6417 26.8929C23.0638 26.8929 20.9662 26.3126 18.3217 24.4144C11.9177 19.8199 11.2723 14.3119 11.2472 14.0794C11.2283 13.8975 11.2767 13.715 11.3833 13.5663C11.4898 13.4177 11.6472 13.3133 11.8255 13.2727C12.0351 13.2246 17.1733 12.1225 23.7868 16.3735C30.7146 20.8255 28.5205 25.1247 28.4242 25.3069C28.3992 25.3531 28.3697 25.3966 28.3361 25.4368C28.2565 25.5311 27.0558 26.8929 24.6417 26.8929ZM12.8817 14.6408C13.2798 16.187 14.6692 19.954 19.1934 23.2014C24.2897 26.8573 26.7247 24.9256 27.1396 24.5276C27.3492 24.0122 28.2691 21.0309 22.98 17.6305C18.3133 14.6325 14.4345 14.5277 12.8817 14.6408Z" />
  <path
    d="M31.5068 36.4739C29.0927 36.4739 27.8941 35.1121 27.8123 35.0178C27.7787 34.9775 27.7493 34.934 27.7243 34.8879C27.6279 34.7056 25.436 30.4065 32.3617 25.9544C38.9752 21.7056 44.1092 22.8118 44.323 22.8537C44.5013 22.8942 44.6587 22.9986 44.7652 23.1473C44.8718 23.2959 44.9202 23.4784 44.9013 23.6603C44.8762 23.8929 44.2329 29.4008 37.8268 33.9954C35.1844 35.8935 33.0868 36.4739 31.5068 36.4739ZM29.0089 34.1085C29.407 34.4919 31.8399 36.4529 36.9551 32.7823C41.4793 29.5433 42.8687 25.7721 43.2668 24.2218C41.7161 24.1086 37.8373 24.2218 33.1706 27.2115C27.8731 30.616 28.8035 33.6078 29.0089 34.1085Z" />
  <path
    d="M24.6418 36.4739C23.0639 36.4739 20.9662 35.8936 18.3217 33.9954C11.9178 29.4009 11.2724 23.8866 11.243 23.6603C11.2241 23.4784 11.2725 23.2959 11.3791 23.1473C11.4857 22.9987 11.643 22.8942 11.8214 22.8537C12.0309 22.8055 17.1692 21.7056 23.7826 25.9545C30.7104 30.4065 28.5164 34.7057 28.42 34.8879C28.3951 34.9341 28.3656 34.9776 28.332 35.0178C28.2566 35.1121 27.0558 36.4739 24.6418 36.4739ZM19.1934 32.7824C24.2918 36.4404 26.7247 34.5066 27.1396 34.1086C27.3492 33.5932 28.2691 30.6118 22.98 27.2115C18.284 24.1967 14.4261 24.1003 12.8817 24.2197C13.2778 25.7617 14.665 29.5329 19.1934 32.7824Z" />
  <path
    d="M31.3999 46.1405C28.9859 46.1405 27.7872 44.7787 27.7055 44.674C27.6719 44.6337 27.6424 44.5902 27.6175 44.5441C27.5211 44.3618 25.3271 40.0627 32.2549 35.6106C38.8684 31.3618 44.0024 32.468 44.2161 32.5099C44.3945 32.5504 44.5518 32.6548 44.6584 32.8035C44.765 32.9521 44.8134 33.1346 44.7945 33.3165C44.7694 33.549 44.1239 39.057 37.72 43.6516C35.0776 45.5602 32.9779 46.1405 31.3999 46.1405ZM28.9042 43.7773C29.3044 44.1628 31.7394 46.1154 36.8483 42.449C41.3977 39.1827 42.7723 35.4325 43.1642 33.8884C41.6135 33.7753 37.7326 33.878 33.0638 36.8781C27.7852 40.2701 28.6862 43.2451 28.9042 43.7773Z" />
  <path
    d="M24.4931 46.1405C22.913 46.1405 20.8175 45.5601 18.173 43.662C11.767 39.0675 11.1236 33.5595 11.0985 33.3269C11.0796 33.145 11.128 32.9625 11.2346 32.8139C11.3412 32.6652 11.4985 32.5608 11.6769 32.5203C11.8864 32.4721 17.0246 31.3722 23.6381 35.621C30.5659 40.0731 28.3719 44.3722 28.2755 44.5545C28.2506 44.6006 28.2211 44.6441 28.1875 44.6844C28.1057 44.7787 26.9071 46.1405 24.4931 46.1405ZM12.733 33.8884C13.1311 35.4346 14.5205 39.2015 19.0447 42.4489C24.141 46.107 26.576 44.1732 26.9909 43.7751C27.2005 43.2597 28.1204 40.2784 22.8292 36.8781C18.1583 33.8821 14.2858 33.7753 12.733 33.8884Z" />
  <path
    d="M27.9881 20.6894H27.9126C27.7031 20.6684 22.9148 20.0902 23.0804 11.8607C23.2396 4.00197 27.0158 0.354422 27.175 0.203575C27.3083 0.0779728 27.483 0.0056102 27.6661 0.00020422C27.8492 -0.00520176 28.0278 0.0567246 28.1683 0.174244C28.3464 0.322996 32.5689 3.92865 32.8057 11.8083C33.0613 20.0357 28.2752 20.6663 28.0698 20.6894H27.9881ZM27.722 1.83356C26.7643 3.05709 24.6876 6.3359 24.5787 11.8795C24.4508 18.1522 27.4244 19.0615 27.986 19.1788C28.5308 19.0615 31.5086 18.1313 31.3137 11.846C31.1377 6.28772 28.7865 3.03404 27.722 1.83984V1.83356Z" />
  <path
    d="M26.2139 11.1504H26.1762C25.9787 11.1407 25.7931 11.0529 25.6602 10.9063C25.5274 10.7598 25.4583 10.5665 25.4679 10.369C25.6565 6.52865 27.0941 4.55298 27.1444 4.47127C27.2648 4.31897 27.4397 4.21944 27.6322 4.19373C27.8246 4.16801 28.0195 4.21812 28.1757 4.33347C28.3319 4.44882 28.4371 4.62036 28.4691 4.81185C28.5011 5.00333 28.4574 5.19975 28.3472 5.35959C28.3241 5.39102 27.115 7.10899 26.9495 10.4423C26.9399 10.6317 26.8585 10.8103 26.7219 10.9419C26.5852 11.0734 26.4036 11.148 26.2139 11.1504Z" />
  <path
    d="M35.3413 29.0258C35.1885 29.0257 35.0394 28.9787 34.9141 28.8914C34.7888 28.804 34.6933 28.6804 34.6403 28.5371C34.5874 28.3938 34.5796 28.2378 34.618 28.0899C34.6564 27.9421 34.7391 27.8096 34.8551 27.7101C34.9557 27.6242 37.3509 25.615 40.6241 25.3615C40.7246 25.3487 40.8267 25.3565 40.9242 25.3843C41.0217 25.4122 41.1124 25.4595 41.191 25.5235C41.2696 25.5875 41.3344 25.6668 41.3814 25.7566C41.4284 25.8464 41.4567 25.9448 41.4645 26.0458C41.4723 26.1468 41.4595 26.2484 41.4269 26.3443C41.3942 26.4403 41.3424 26.5286 41.2746 26.6039C41.2068 26.6792 41.1244 26.74 41.0324 26.7825C40.9404 26.825 40.8407 26.8483 40.7393 26.8511C37.9628 27.0606 35.8442 28.831 35.8232 28.8499C35.6882 28.9632 35.5176 29.0255 35.3413 29.0258Z" />
  <path
    d="M21.1592 19.7926C20.978 19.7918 20.8031 19.7256 20.6668 19.6062C20.6353 19.5789 18.5524 17.7855 15.7884 17.5111C15.6874 17.5061 15.5884 17.4806 15.4976 17.4363C15.4067 17.392 15.3257 17.3297 15.2596 17.2532C15.1934 17.1767 15.1435 17.0876 15.1128 16.9913C15.082 16.895 15.0712 16.7934 15.0808 16.6928C15.0904 16.5921 15.1204 16.4945 15.1688 16.4057C15.2173 16.317 15.2832 16.239 15.3627 16.1764C15.4422 16.1139 15.5335 16.0681 15.6311 16.0418C15.7288 16.0155 15.8308 16.0093 15.9309 16.0236C19.1999 16.3399 21.5574 18.391 21.6559 18.479C21.7694 18.5797 21.8495 18.7126 21.8857 18.8599C21.922 19.0073 21.9125 19.1621 21.8586 19.304C21.8047 19.4458 21.709 19.5679 21.5841 19.6541C21.4592 19.7402 21.311 19.7864 21.1592 19.7864V19.7926Z" />
  <path
    d="M20.73 38.5877C20.5664 38.5874 20.4075 38.5337 20.2773 38.4348C18.8218 37.4185 17.1738 36.7106 15.4346 36.3543C15.2451 36.3107 15.08 36.195 14.9744 36.0317C14.8688 35.8685 14.8309 35.6705 14.8688 35.4798C14.9067 35.2891 15.0174 35.1207 15.1773 35.0102C15.3373 34.8997 15.534 34.8558 15.7258 34.8878C17.6865 35.286 19.5423 36.0895 21.1742 37.2469C21.298 37.342 21.3889 37.4735 21.4341 37.6229C21.4794 37.7723 21.4768 37.9321 21.4267 38.0799C21.3765 38.2278 21.2814 38.3562 21.1546 38.4473C21.0277 38.5383 20.8756 38.5874 20.7195 38.5877H20.73Z" />
</svg>