<svg width="56" height="56" viewBox="0 0 56 56" fill="currentColor" stroke="currentColor"
  xmlns="http://www.w3.org/2000/svg">
  <path
    d="M30.8849 43.9999H30.8513L16.9321 42.7735C16.8356 42.765 16.7458 42.7204 16.6804 42.6485C16.615 42.5767 16.5788 42.4827 16.5789 42.3852V20.3508C16.579 20.299 16.5894 20.2476 16.6095 20.1998C16.6296 20.152 16.6589 20.1088 16.6958 20.0725C16.7326 20.0363 16.7763 20.0078 16.8243 19.9887C16.8722 19.9696 16.9234 19.9604 16.975 19.9615L30.8942 20.2832C30.9954 20.2857 31.0918 20.3279 31.1625 20.4009C31.2333 20.4738 31.2729 20.5718 31.2729 20.6738V43.6094C31.2726 43.7128 31.2316 43.812 31.1589 43.8852C31.0862 43.9584 30.9877 43.9996 30.8849 43.9999ZM17.3537 42.025L30.4969 43.1815V21.0562L17.3537 20.7519V42.025Z"
    stroke-width="0.25" />
  <path
    d="M30.8846 28.5072H30.8707L16.9527 28.0187C16.8529 28.011 16.76 27.9648 16.6933 27.8897C16.6266 27.8146 16.5913 27.7165 16.5947 27.6159C16.5981 27.5152 16.6401 27.4198 16.7117 27.3495C16.7834 27.2793 16.8793 27.2396 16.9793 27.2388L30.8985 27.7273C30.9977 27.7342 31.0905 27.7792 31.1576 27.853C31.2248 27.9268 31.2613 28.0238 31.2595 28.1239C31.2577 28.224 31.2178 28.3195 31.1481 28.3908C31.0783 28.4622 30.984 28.5038 30.8846 28.5072Z"
    stroke-width="0.25" />
  <path
    d="M30.8848 36.3709H30.8709L16.9528 35.718C16.9009 35.7171 16.8497 35.7057 16.8023 35.6846C16.7549 35.6634 16.7121 35.6329 16.6766 35.5948C16.6411 35.5567 16.6135 35.5118 16.5955 35.4628C16.5776 35.4138 16.5695 35.3616 16.5719 35.3094C16.5744 35.2572 16.5871 35.2061 16.6095 35.1589C16.6319 35.1118 16.6635 35.0697 16.7024 35.0351C16.7412 35.0004 16.7866 34.974 16.8358 34.9573C16.885 34.9407 16.937 34.9341 16.9887 34.9381L30.9079 35.5909C31.0108 35.5934 31.1085 35.6369 31.1796 35.7119C31.2506 35.7869 31.2891 35.8872 31.2867 35.9908C31.2842 36.0944 31.241 36.1928 31.1665 36.2642C31.092 36.3357 30.9923 36.3745 30.8894 36.372L30.8848 36.3709Z"
    stroke-width="0.25" />
  <path
    d="M30.8848 43.9999C30.782 43.9996 30.6835 43.9584 30.6108 43.8852C30.5381 43.812 30.4971 43.7129 30.4968 43.6094V20.675C30.4969 20.5754 30.5347 20.4796 30.6025 20.407C30.6702 20.3345 30.7629 20.2906 30.8617 20.2844L39.0177 19.8018C39.0704 19.7986 39.1233 19.8063 39.173 19.8244C39.2227 19.8425 39.2682 19.8707 39.3067 19.9072C39.3452 19.9436 39.3759 19.9876 39.3969 20.0365C39.4179 20.0853 39.4288 20.1379 39.4288 20.1911V42.039C39.4288 42.1298 39.3974 42.2178 39.3399 42.2878C39.2824 42.3578 39.2024 42.4055 39.1138 42.4226L30.9578 43.9929C30.9337 43.9976 30.9093 43.9999 30.8848 43.9999ZM31.2728 21.0399V43.1372L38.6528 41.7161V20.605L31.2728 21.0399Z"
    stroke-width="0.25" />
  <path
    d="M30.8847 21.0643H30.8708L16.9527 20.7426C16.8821 20.741 16.8133 20.7201 16.7537 20.6821C16.694 20.644 16.6458 20.5903 16.6142 20.5268C16.5826 20.4632 16.5689 20.3921 16.5745 20.3213C16.58 20.2504 16.6047 20.1824 16.6458 20.1247L20.5628 14.6277C20.5986 14.5772 20.6459 14.5361 20.7007 14.5077C20.7555 14.4793 20.8162 14.4645 20.8779 14.4645H34.6604C34.7302 14.4646 34.7987 14.4837 34.8587 14.5198C34.9186 14.5558 34.9678 14.6075 35.001 14.6693C35.0342 14.7312 35.0502 14.8009 35.0474 14.8711C35.0445 14.9414 35.0228 15.0095 34.9847 15.0684L31.2159 20.8825C31.1808 20.9388 31.1319 20.9851 31.0739 21.017C31.0159 21.0488 30.9507 21.0651 30.8847 21.0643ZM17.709 19.9789L30.6808 20.2797L33.94 15.2503L21.4164 14.7723L17.709 19.9789Z"
    stroke-width="0.25" />
  <path
    d="M39.0404 20.5817C38.9833 20.5818 38.927 20.5692 38.8753 20.5448C38.8237 20.5204 38.778 20.4849 38.7416 20.4407L34.3543 15.1081C34.2887 15.0285 34.2573 14.9259 34.2668 14.8229C34.2764 14.72 34.3262 14.625 34.4053 14.559C34.4844 14.493 34.5863 14.4613 34.6886 14.4709C34.7909 14.4806 34.8852 14.5307 34.9508 14.6103L39.3392 19.9429C39.3859 20 39.4156 20.0693 39.4247 20.1427C39.4338 20.2161 39.4221 20.2906 39.3908 20.3575C39.3594 20.4245 39.3099 20.4811 39.2479 20.5208C39.1858 20.5605 39.1139 20.5816 39.0404 20.5817Z"
    stroke-width="0.25" />
  <path
    d="M34.6537 15.2504H20.8712C20.8203 15.2504 20.7699 15.2403 20.7229 15.2206C20.6759 15.201 20.6332 15.1722 20.5973 15.1359C20.5613 15.0996 20.5329 15.0566 20.5135 15.0092C20.4941 14.9618 20.4842 14.911 20.4844 14.8598V12.3894C20.4842 12.3382 20.4941 12.2875 20.5135 12.2402C20.5329 12.1929 20.5614 12.1499 20.5973 12.1137C20.6333 12.0775 20.676 12.0488 20.723 12.0293C20.77 12.0098 20.8204 11.9998 20.8712 12H34.6537C34.7046 11.9998 34.755 12.0098 34.802 12.0293C34.849 12.0488 34.8917 12.0775 34.9276 12.1137C34.9636 12.1499 34.9921 12.1929 35.0114 12.2402C35.0308 12.2875 35.0407 12.3382 35.0406 12.3894V14.861C35.0406 14.9642 34.9998 15.0633 34.9273 15.1363C34.8547 15.2093 34.7563 15.2504 34.6537 15.2504ZM21.2638 14.4693H34.2657V12.7799H21.2638V14.4693Z"
    stroke-width="0.25" />
  <path
    d="M18.9277 26.2432C18.8768 26.2432 18.8264 26.233 18.7794 26.2134C18.7324 26.1938 18.6897 26.165 18.6538 26.1287C18.6178 26.0924 18.5893 26.0493 18.57 26.002C18.5506 25.9546 18.5407 25.9038 18.5409 25.8526V22.3411C18.538 22.2881 18.5459 22.235 18.564 22.1852C18.5822 22.1354 18.6103 22.0898 18.6465 22.0512C18.6828 22.0127 18.7265 21.982 18.7749 21.961C18.8234 21.94 18.8755 21.9292 18.9283 21.9292C18.981 21.9292 19.0332 21.94 19.0816 21.961C19.1301 21.982 19.1738 22.0127 19.21 22.0512C19.2463 22.0898 19.2744 22.1354 19.2925 22.1852C19.3107 22.235 19.3186 22.2881 19.3157 22.3411V25.8526C19.3157 25.9562 19.2748 26.0555 19.2021 26.1288C19.1293 26.202 19.0306 26.2432 18.9277 26.2432Z"
    stroke-width="0.25" />
  <path
    d="M18.9277 41.168C18.8768 41.168 18.8264 41.1579 18.7794 41.1382C18.7324 41.1186 18.6897 41.0898 18.6538 41.0535C18.6178 41.0173 18.5893 40.9742 18.57 40.9268C18.5506 40.8794 18.5407 40.8287 18.5409 40.7774V37.2648C18.538 37.2118 18.5459 37.1587 18.564 37.1089C18.5822 37.059 18.6103 37.0135 18.6465 36.9749C18.6828 36.9364 18.7265 36.9057 18.7749 36.8847C18.8234 36.8637 18.8755 36.8529 18.9283 36.8529C18.981 36.8529 19.0332 36.8637 19.0816 36.8847C19.1301 36.9057 19.1738 36.9364 19.21 36.9749C19.2463 37.0135 19.2744 37.059 19.2925 37.1089C19.3107 37.1587 19.3186 37.2118 19.3157 37.2648V40.7774C19.3157 40.881 19.2748 40.9804 19.2021 41.0536C19.1293 41.1268 19.0306 41.168 18.9277 41.168Z"
    stroke-width="0.25" />
</svg>