<svg width="56" height="56" viewBox="0 0 56 56" fill="currentColor" stroke="currentColor"
  xmlns="http://www.w3.org/2000/svg">
  <path
    d="M34.231 39.8142C34.1049 39.8142 33.9598 39.7133 33.8058 39.5417C32.1654 40.5055 29.0513 42.3348 27.8235 43.0362C27.7428 43.0816 27.5547 43.1901 27.1724 42.9176C25.9775 42.0661 24.7888 38.921 24.857 37.7667C25.5939 37.4387 29.1913 36.9164 32.5099 36.5682L32.5604 36.6224C32.5389 36.3625 32.5743 36.1695 32.6866 36.0964C32.7989 36.0232 32.9175 35.9399 33.055 35.834L33.0172 35.7923C32.9696 35.7406 32.9106 35.7006 32.8449 35.6756C32.7792 35.6507 32.7086 35.6414 32.6386 35.6485C32.6184 35.6485 30.5718 35.863 28.5377 36.1531C24.1213 36.7675 24.057 37.0905 23.9863 37.4626C23.734 38.7797 25.0589 42.5253 26.6462 43.6569C26.9249 43.8698 27.2635 43.9898 27.6141 44C27.8433 43.9998 28.0684 43.9389 28.2664 43.8234C29.9648 42.8533 35.2531 39.7385 35.3061 39.7069C35.3396 39.6868 35.3702 39.6622 35.397 39.6338C35.0164 39.7376 34.6252 39.7981 34.231 39.8142Z" />
  <path
    d="M34.2264 40.2633C33.1601 40.2633 32.3046 37.5649 32.297 37.5384C31.9955 36.5531 32.0447 35.9753 32.4459 35.7179C33.5992 34.9812 36.6099 31.985 36.6932 30.5796C36.726 30.0624 36.6465 29.7482 36.427 29.5287C35.8945 28.9976 34.3589 28.8323 31.5917 29.0077C29.8542 29.1187 20.8662 29.5211 14.5293 26.5628C13.559 26.1099 13.0808 25.5826 13.0681 24.9492C13.0442 23.8138 14.6013 23.0102 15.4378 22.5763C17.9682 21.2814 20.7063 20.4406 23.5274 20.0922C23.9059 20.0493 24.3085 19.9951 24.745 19.9371C27.6914 19.5435 32.1431 18.948 37.9828 20.4051C41.068 21.1734 43.1954 22.6759 44.3083 24.8761C45.4212 27.0762 45.4149 29.9047 44.2919 32.6435C42.5493 36.8924 36.9935 40.1952 34.2415 40.2633H34.2264ZM33.0024 36.4295C32.909 36.9845 33.8125 39.0951 34.2642 39.3626C36.8106 39.2629 41.9033 36.0901 43.4579 32.2978C44.4812 29.8012 44.4989 27.2428 43.5045 25.2785C42.5102 23.3143 40.5834 21.977 37.7633 21.2743C32.0851 19.8588 27.7419 20.4404 24.8636 20.8252C24.4207 20.8845 24.0094 20.9387 23.6283 20.9829C20.9163 21.3177 18.2841 22.1261 15.8517 23.371C14.5899 24.0245 13.959 24.5481 13.9666 24.9265C13.9666 25.1688 14.3148 25.4665 14.9092 25.744C19.67 27.9656 26.8409 28.4059 31.5336 28.1057C34.7021 27.9051 36.3033 28.1309 37.0617 28.8878C37.6005 29.4253 37.6219 30.1418 37.5904 30.6326C37.4743 32.5262 34.1847 35.6334 33.0024 36.4295Z" />
  <path
    d="M24.4293 28.9396C24.3571 28.9396 24.286 28.9219 24.2223 28.8878C24.1698 28.8607 24.1231 28.8234 24.0851 28.7782C24.047 28.7329 24.0182 28.6806 24.0004 28.6243C23.9826 28.5679 23.976 28.5085 23.9812 28.4496C23.9864 28.3907 24.0031 28.3334 24.0305 28.281C26.1756 24.1746 24.1365 20.829 24.0482 20.689C23.9986 20.5892 23.9877 20.4746 24.0177 20.3672C24.0477 20.2599 24.1164 20.1675 24.2105 20.1079C24.3047 20.0483 24.4176 20.0257 24.5274 20.0445C24.6373 20.0632 24.7363 20.1221 24.8053 20.2096C24.905 20.3673 27.2027 24.1204 24.8242 28.6973C24.7864 28.7696 24.7297 28.8303 24.6602 28.8729C24.5906 28.9156 24.5108 28.9386 24.4293 28.9396Z" />
  <path
    d="M16.139 23.1793C16.0834 23.1791 16.0282 23.1688 15.9762 23.149C15.8046 23.0821 11.787 21.4926 10.9983 19.1536C10.8734 18.7897 10.8333 18.402 10.8812 18.0203C10.9291 17.6385 11.0637 17.2727 11.2747 16.9509C12.3094 15.263 14.7598 15.2554 17.3541 15.2491C20.6462 15.2403 24.0506 15.2302 25.5875 12.244C25.6145 12.1915 25.6516 12.1448 25.6967 12.1067C25.7417 12.0685 25.7939 12.0395 25.8501 12.0215C25.9064 12.0035 25.9656 11.9967 26.0245 12.0015C26.0833 12.0064 26.1407 12.0228 26.1932 12.0498C26.2457 12.0768 26.2924 12.1139 26.3306 12.1589C26.3688 12.2039 26.3978 12.2561 26.4158 12.3123C26.4338 12.3685 26.4406 12.4278 26.4358 12.4866C26.4309 12.5455 26.4145 12.6028 26.3875 12.6553C24.6008 16.1284 20.7522 16.1397 17.3567 16.1486C14.9188 16.1549 12.8141 16.1612 12.0419 17.4215C11.9004 17.6311 11.8095 17.8706 11.7765 18.1213C11.7434 18.372 11.769 18.6269 11.8513 18.866C12.3952 20.4808 15.2494 21.8937 16.303 22.31C16.4004 22.3485 16.4813 22.4197 16.5319 22.5114C16.5825 22.6031 16.5995 22.7095 16.5801 22.8124C16.5607 22.9153 16.506 23.0082 16.4255 23.0751C16.345 23.1421 16.2437 23.1789 16.139 23.1793Z" />
  <path
    d="M22.946 22.9761C22.946 23.1161 22.9045 23.2529 22.8267 23.3693C22.749 23.4857 22.6384 23.5764 22.509 23.63C22.3797 23.6835 22.2374 23.6975 22.1001 23.6702C21.9627 23.6429 21.8366 23.5755 21.7376 23.4765C21.6386 23.3776 21.5712 23.2515 21.5439 23.1142C21.5166 22.9769 21.5306 22.8346 21.5842 22.7053C21.6377 22.5759 21.7285 22.4654 21.8449 22.3876C21.9613 22.3099 22.0981 22.2684 22.2382 22.2684C22.4259 22.2684 22.6059 22.3429 22.7387 22.4757C22.8714 22.6084 22.946 22.7884 22.946 22.9761Z" />
  <path
    d="M34.5923 28.8827C34.5084 28.8826 34.4262 28.8591 34.3549 28.8149C34.2837 28.7707 34.2262 28.7074 34.189 28.6323C34.1517 28.5572 34.1362 28.4731 34.1441 28.3897C34.1521 28.3062 34.1832 28.2266 34.2339 28.1598C37.3885 24.0244 34.7626 20.7683 34.7386 20.7368C34.6993 20.6914 34.6695 20.6387 34.6508 20.5816C34.6322 20.5246 34.6251 20.4644 34.6301 20.4046C34.635 20.3447 34.6519 20.2865 34.6797 20.2333C34.7075 20.1801 34.7456 20.133 34.7919 20.0948C34.8381 20.0565 34.8916 20.0279 34.949 20.0105C35.0065 19.9932 35.0669 19.9876 35.1266 19.9939C35.1863 20.0002 35.2441 20.0184 35.2966 20.0474C35.3492 20.0764 35.3954 20.1156 35.4326 20.1628C35.4642 20.2006 38.5317 24.008 34.9544 28.7048C34.912 28.7606 34.8572 28.8057 34.7944 28.8365C34.7315 28.8674 34.6623 28.8832 34.5923 28.8827Z" />
  <path
    d="M39.5094 32.6523C38.5115 32.6546 37.5223 32.4671 36.5946 32.0997C36.4858 32.0507 36.401 31.9605 36.3587 31.849C36.3165 31.7374 36.3203 31.6136 36.3693 31.5049C36.4184 31.3962 36.5086 31.3113 36.6202 31.2691C36.7317 31.2269 36.8555 31.2307 36.9643 31.2797C37.1359 31.3567 41.1636 33.0989 44.1175 29.5463C44.1553 29.5009 44.2017 29.4634 44.254 29.4359C44.3062 29.4085 44.3634 29.3915 44.4222 29.3862C44.4811 29.3808 44.5404 29.387 44.5968 29.4045C44.6532 29.4221 44.7056 29.4505 44.751 29.4883C44.7964 29.5261 44.8339 29.5724 44.8614 29.6247C44.8889 29.677 44.9058 29.7341 44.9112 29.7929C44.9166 29.8517 44.9103 29.911 44.8928 29.9674C44.8753 30.0238 44.8468 30.0762 44.809 30.1216C43.1358 32.1363 41.1169 32.6523 39.5094 32.6523Z" />
  <path
    d="M28.8379 32.6624C28.7858 32.6623 28.7342 32.6534 28.6852 32.6359C28.6295 32.6159 28.5783 32.5851 28.5345 32.5453C28.4908 32.5055 28.4553 32.4574 28.4301 32.4039C28.4049 32.3503 28.3905 32.2924 28.3877 32.2332C28.3849 32.1741 28.3938 32.1151 28.4139 32.0594C29.0738 30.2327 28.4669 29.0455 28.4404 28.9963C28.388 28.8917 28.3784 28.7708 28.4137 28.6592C28.449 28.5476 28.5263 28.4541 28.6293 28.3985C28.7323 28.3429 28.8529 28.3296 28.9655 28.3613C29.0782 28.3931 29.1741 28.4675 29.2328 28.5687C29.2669 28.6317 30.0644 30.138 29.2606 32.366C29.2292 32.4528 29.1717 32.5279 29.0961 32.581C29.0204 32.634 28.9303 32.6625 28.8379 32.6624Z" />
  <path
    d="M31.951 32.4593C31.8989 32.4597 31.8472 32.4507 31.7983 32.4328C31.6861 32.3921 31.5946 32.3085 31.544 32.2004C31.4933 32.0923 31.4877 31.9685 31.5283 31.8563C32.1516 30.133 31.5498 28.8209 31.5435 28.8083C31.5028 28.7018 31.504 28.5839 31.5469 28.4782C31.5897 28.3726 31.6711 28.2871 31.7745 28.2391C31.8779 28.1911 31.9957 28.1841 32.1041 28.2195C32.2125 28.2549 32.3035 28.3301 32.3586 28.4299C32.3901 28.4967 33.1232 30.0964 32.3737 32.1679C32.3415 32.2538 32.2837 32.3278 32.2081 32.3799C32.1325 32.432 32.0428 32.4597 31.951 32.4593Z" />
  <path
    d="M33.2783 22.7175C33.254 22.7194 33.2295 22.7194 33.2052 22.7175C30.6676 22.3063 28.0973 22.7175 28.0708 22.7175C28.0097 22.7349 27.9456 22.7392 27.8827 22.73C27.8198 22.7209 27.7596 22.6985 27.7059 22.6645C27.6523 22.6304 27.6065 22.5854 27.5715 22.5323C27.5365 22.4793 27.5131 22.4194 27.5029 22.3567C27.4927 22.294 27.4959 22.2299 27.5122 22.1685C27.5286 22.1071 27.5577 22.0498 27.5978 22.0005C27.6378 21.9512 27.6879 21.9109 27.7446 21.8823C27.8013 21.8536 27.8635 21.8373 27.927 21.8344C28.038 21.8155 30.6689 21.3992 33.3528 21.8344C33.4653 21.8514 33.5671 21.9104 33.6378 21.9995C33.7085 22.0886 33.7427 22.2012 33.7336 22.3146C33.7245 22.4279 33.6727 22.5336 33.5886 22.6103C33.5046 22.6869 33.3946 22.7289 33.2809 22.7276L33.2783 22.7175Z" />
  <path
    d="M42.4835 28.9522H42.4759C42.4168 28.9513 42.3585 28.9389 42.3042 28.9155C42.2499 28.892 42.2008 28.8582 42.1597 28.8157C42.1185 28.7733 42.0862 28.7232 42.0644 28.6682C42.0427 28.6133 42.032 28.5546 42.033 28.4955C42.0911 25.0476 38.9252 24.1254 38.8936 24.1166C38.7841 24.08 38.6928 24.0028 38.6386 23.9008C38.5844 23.7989 38.5715 23.68 38.6024 23.5688C38.6333 23.4576 38.7058 23.3625 38.8048 23.3031C38.9039 23.2438 39.0219 23.2247 39.1346 23.2499C39.1737 23.2613 43.0021 24.3752 42.934 28.5106C42.9316 28.6285 42.8832 28.7408 42.7989 28.8234C42.7147 28.906 42.6014 28.9522 42.4835 28.9522Z" />
</svg>