<svg width="56" height="56" viewBox="0 0 56 56" fill="currentColor" stroke="currentColor"
  xmlns="http://www.w3.org/2000/svg">
  <path fill-rule="evenodd" clip-rule="evenodd"
    d="M36.8252 25.0949C36.8968 25.1623 36.9542 25.2431 36.9941 25.3327C37.034 25.4224 37.0555 25.5191 37.0576 25.6174C37.0596 25.7157 37.0421 25.8135 37.0061 25.9054C36.97 25.9973 36.916 26.0814 36.8473 26.1529C36.7016 26.2901 36.5074 26.3649 36.3074 26.3608C36.1074 26.3567 35.9179 26.2741 35.7806 26.131L31.6139 22.0113C31.5425 21.9431 31.4854 21.8615 31.4459 21.7711C31.4065 21.6808 31.3856 21.5834 31.3842 21.4846C31.3829 21.3859 31.4013 21.2876 31.4382 21.1956C31.4752 21.1035 31.5301 21.0195 31.5997 20.9482C31.6723 20.8799 31.7578 20.8265 31.8511 20.791C31.9444 20.7554 32.0436 20.7385 32.1432 20.7411C32.2428 20.7437 32.3407 20.7659 32.4312 20.8063C32.5218 20.8467 32.6033 20.9045 32.6709 20.9765L36.8252 25.0949Z"
    stroke-width="0.85" fill="none" stroke-linecap="round" stroke-linejoin="round" />
  <path fill-rule="evenodd" clip-rule="evenodd"
    d="M33.6941 24.0644C33.6941 24.0644 33.6941 24.0644 33.6974 24.0719L33.6941 24.0644Z" stroke-width="0.85"
    stroke-linecap="round" fill="none" stroke-linejoin="round" />
  <path fill-rule="evenodd" clip-rule="evenodd"
    d="M39.4026 23.5354C39.492 23.619 39.5636 23.7195 39.6135 23.8311C39.6634 23.9426 39.6905 24.063 39.6933 24.1854C39.6961 24.3077 39.6745 24.4297 39.6297 24.5442C39.585 24.6587 39.518 24.7635 39.4326 24.8526C39.2514 25.0231 39.0101 25.1159 38.7616 25.1106C38.5132 25.1053 38.2778 25.0025 38.1073 24.8246L32.9372 19.7006C32.8478 19.617 32.7761 19.5166 32.7262 19.4052C32.6762 19.2938 32.649 19.1734 32.6461 19.0512C32.6432 18.9289 32.6646 18.807 32.7092 18.6925C32.7537 18.578 32.8206 18.4732 32.9058 18.3839C33.0873 18.2133 33.3291 18.1206 33.5779 18.126C33.8268 18.1314 34.0624 18.2345 34.2331 18.4128L39.4026 23.5354Z"
    stroke-width="0.85" fill="none" stroke-linecap="round" stroke-linejoin="round" />
  <path fill-rule="evenodd" clip-rule="evenodd"
    d="M33.1967 19.9591C33.0556 20.3625 32.9565 20.7789 32.9009 21.2016L36.5962 24.8615C37.0226 24.805 37.4423 24.7047 37.8485 24.5624L33.1967 19.9591Z"
    stroke-width="0.85" fill="none" stroke-linecap="round" stroke-linejoin="round" />
  <path fill-rule="evenodd" clip-rule="evenodd"
    d="M44.1585 17.8137C44.2261 17.8855 44.3074 17.9432 44.3978 17.9835C44.4882 18.0239 44.5859 18.046 44.6853 18.0487C44.7848 18.0514 44.8839 18.0346 44.9771 17.9992C45.0702 17.9638 45.1556 17.9106 45.2283 17.8426C45.3667 17.6978 45.4419 17.5049 45.4373 17.3063C45.4328 17.1078 45.3489 16.9199 45.2042 16.7839L41.0375 12.6642C40.9002 12.5211 40.7107 12.4384 40.5107 12.4343C40.3107 12.4302 40.1165 12.505 39.9708 12.6423C39.8363 12.7867 39.7637 12.977 39.7685 13.1726C39.7733 13.3681 39.855 13.5534 39.9963 13.6888L44.1585 17.8137Z"
    stroke-width="0.85" fill="none" stroke-linecap="round" stroke-linejoin="round" />
  <path fill-rule="evenodd" clip-rule="evenodd"
    d="M42.5876 20.3667C42.7581 20.5446 42.9934 20.6475 43.2419 20.6527C43.4904 20.658 43.7317 20.5652 43.9129 20.3947C44.085 20.2145 44.1785 19.9745 44.1729 19.7275C44.1673 19.4805 44.063 19.2467 43.8829 19.0775L38.7171 13.9633C38.5464 13.785 38.3107 13.6818 38.0619 13.6764C37.813 13.671 37.5713 13.7638 37.3898 13.9344C37.218 14.1148 37.1247 14.3547 37.1304 14.6016C37.136 14.8485 37.24 15.0823 37.4197 15.2517L42.5876 20.3667Z"
    stroke-width="0.85" fill="none" stroke-linecap="round" stroke-linejoin="round" />
  <path fill-rule="evenodd" clip-rule="evenodd"
    d="M42.0499 21.5505C42.1503 21.6448 42.2308 21.7579 42.2868 21.8834C42.3428 22.0089 42.3732 22.1443 42.3763 22.282C42.3794 22.4196 42.3551 22.5567 42.3048 22.6855C42.2545 22.8143 42.1793 22.9323 42.0833 23.0326C41.9823 23.1277 41.8635 23.2023 41.7338 23.2522C41.6041 23.302 41.4661 23.3261 41.3275 23.3231C41.1888 23.32 41.0525 23.2899 40.9261 23.2344C40.7997 23.179 40.6858 23.0992 40.5909 22.9998L34.7745 17.2401C34.5722 17.0498 34.4549 16.7869 34.4483 16.5092C34.4418 16.2315 34.5466 15.9616 34.7397 15.7586C34.9432 15.5659 35.2149 15.4605 35.4949 15.4657C35.7749 15.4708 36.0404 15.586 36.2331 15.786L42.0499 21.5505Z"
    stroke-width="0.85" fill="none" stroke-linecap="round" stroke-linejoin="round" />
  <path fill-rule="evenodd" clip-rule="evenodd"
    d="M39.5595 23.7393C39.9187 23.5133 40.2635 23.2652 40.5916 22.9964L34.778 17.2355C34.5072 17.5611 34.2572 17.9031 34.0294 18.2596C34.1047 18.3019 34.1743 18.3535 34.2366 18.413L39.4055 23.5342C39.4658 23.5954 39.5176 23.6644 39.5595 23.7393Z"
    stroke-width="0.85" fill="none" stroke-linecap="round" stroke-linejoin="round" />
  <path fill-rule="evenodd" clip-rule="evenodd"
    d="M42.5872 20.3667L37.4187 15.2503C37.359 15.1886 37.3073 15.1197 37.2647 15.0453C36.9053 15.27 36.5609 15.5175 36.2334 15.7861L42.0498 21.5458C42.3199 21.22 42.5686 20.8774 42.7943 20.5202C42.7189 20.478 42.6493 20.4264 42.5872 20.3667Z"
    stroke-width="0.85" fill="none" stroke-linecap="round" stroke-linejoin="round" />
  <path fill-rule="evenodd" clip-rule="evenodd"
    d="M43.115 14.7115L43.1206 14.7243C43.1211 14.7219 43.1208 14.7193 43.1198 14.717C43.1188 14.7147 43.1171 14.7128 43.115 14.7115Z"
    stroke-width="0.85" fill="none" stroke-linecap="round" stroke-linejoin="round" />
  <path fill-rule="evenodd" clip-rule="evenodd"
    d="M40.2285 13.9192C39.8014 13.9748 39.3808 14.0743 38.9736 14.2161L43.6245 18.8248C43.7658 18.4215 43.8649 18.0051 43.9202 17.5823L40.2285 13.9192Z"
    stroke-width="0.85" fill="none" stroke-linecap="round" stroke-linejoin="round" />
  <path fill-rule="evenodd" clip-rule="evenodd"
    d="M32.5242 22.9036C32.3344 23.0477 32.1575 23.2078 31.9954 23.382L13.8308 42.9142C13.7225 43.0316 12.8405 44.3038 13.0801 44.5428C13.3198 44.7817 14.6023 43.9039 14.7204 43.7972L34.4009 25.7577C34.5768 25.597 34.7378 25.421 34.882 25.232L32.5242 22.9036Z"
    stroke-width="0.85" fill="none" stroke-linecap="round" stroke-linejoin="round" />
</svg>