<svg width="56" height="56" viewBox="0 0 56 56" fill="currentColor" stroke="currentColor"
  xmlns="http://www.w3.org/2000/svg">
  <path
    d="M21.0879 34.202C20.9042 36.5637 25.1571 36.206 25.1571 36.206L24.1742 38.5952C24.1742 38.5952 22.4519 42.4015 22.9112 45.7079C23.2398 47.7385 24.3159 49.5734 25.9287 50.8532C12.6188 50.8532 21.4737 34.8623 13 27.0664C16.1506 26.6958 19.325 27.5279 21.887 29.396C21.7122 29.517 21.5664 29.6752 21.46 29.8591C21.3536 30.0431 21.2892 30.2482 21.2716 30.4599C21.0879 32.441 23.9951 32.5419 25.2214 32.496V32.5281C24.0686 32.4547 21.2257 32.4548 21.0879 34.202ZM21.0879 34.202C20.9088 36.1051 23.6966 36.2748 25.0422 36.2427C25.2673 36.2427 25.3592 35.9996 25.4189 35.8896C25.5499 35.5246 25.6603 35.1525 25.7496 34.7752V32.574C25.7496 32.574 21.3175 31.987 21.0879 34.202ZM25.7496 13.1574V16.7894C25.7496 16.7894 21.2486 17.2893 21.4645 14.7854C21.6574 12.5796 25.7496 13.1574 25.7496 13.1574ZM21.4645 18.5275C21.2486 21.0313 25.7496 20.5315 25.7496 20.5315V16.8995C25.7496 16.8995 21.6574 16.3217 21.4645 18.5275ZM21.4645 22.508C21.2486 25.0119 25.7496 24.5074 25.7496 24.5074V20.8754C25.7496 20.8754 21.6574 20.2976 21.4645 22.508ZM21.4645 26.4839C21.2486 28.9878 25.7496 28.488 25.7496 28.488V24.8514C25.7496 24.8514 21.6574 24.2736 21.4645 26.4839ZM21.267 30.4599C21.0374 32.9638 25.7496 32.4639 25.7496 32.4639V28.8273C25.7496 28.8273 21.4645 28.2541 21.267 30.4599ZM21.0879 38.0954C20.9593 39.4711 22.3463 39.9297 23.6598 40.0811C24.0259 38.8195 24.5007 37.5921 25.079 36.4124C23.8297 36.3527 21.2486 36.4261 21.0879 38.0954ZM20.9133 41.9934C20.7985 43.1627 21.786 43.6764 22.9342 43.8919C22.9342 42.8096 23.3475 41.2367 23.3935 40.347C22.2361 40.48 21.019 40.8882 20.9133 41.9934ZM20.8444 46.0748C20.7067 47.6385 22.2223 48.1476 23.6001 48.2943C23.0098 47.0502 22.7625 45.6714 22.8837 44.3C21.8411 44.488 20.9409 44.965 20.8582 46.0748H20.8444ZM23.3981 6.72804C23.2786 9.2732 25.7496 8.76415 25.7496 8.76415V5.07253C25.7496 5.07253 23.4991 4.47179 23.3981 6.72804ZM22.1993 10.7636C22.0156 13.2583 25.7496 12.7585 25.7496 12.7585V9.1402C25.7496 9.1402 22.3555 8.56697 22.1993 10.7636ZM30.3515 13.1574V16.7894C30.3515 16.7894 34.8478 17.2893 34.632 14.7854C34.4391 12.5796 30.3515 13.1574 30.3515 13.1574ZM30.3515 16.8995V20.5223C30.3515 20.5223 34.8478 21.0222 34.632 18.5183C34.4391 16.3217 30.3515 16.8995 30.3515 16.8995ZM30.3515 20.8754V24.5074C30.3515 24.5074 34.8478 25.0119 34.632 22.508C34.4391 20.2976 30.3515 20.8754 30.3515 20.8754ZM30.3515 24.8514V28.488C31.3796 28.5398 32.3911 28.2135 33.1944 27.5708C33.8696 27.236 34.6871 26.9701 34.632 26.4977C34.4391 24.2736 30.3515 24.8514 30.3515 24.8514ZM30.3515 28.8273V29.5015L31.068 28.9099L30.3515 28.8273ZM30.3515 5.07253V8.76415C30.3515 8.76415 32.8224 9.2732 32.703 6.72804C32.5974 4.47179 30.3515 5.07253 30.3515 5.07253ZM30.3515 9.1402V12.7585C30.3515 12.7585 34.0809 13.2583 33.9017 10.7636C33.741 8.56697 30.3515 9.1402 30.3515 9.1402ZM30.3515 5.01292H25.7588V8.77333H30.3515V5.01292ZM30.3515 9.06682H25.7588V12.8272H30.3515V9.06682ZM30.3515 13.0886H25.7588V16.8536H30.3515V13.0886ZM30.3515 16.9499H25.7588V20.7103H30.3515V16.9499ZM30.3515 20.8709H25.7588V24.6313H30.3515V20.8709ZM30.3515 24.8193H25.7588V28.5797H30.3515V24.8193ZM30.3515 28.7631H25.7588V32.5235H27.6234L30.3791 29.6482L30.3515 28.7631ZM25.7588 32.5052V35.1558L27.6234 32.5052H25.7588ZM27.1917 51C16.688 48.9776 26.9115 22.7052 43 25.8144C34.9029 31.3954 40.4143 50.4772 27.1825 50.9908L27.1917 51Z"
    stroke-width="0.75" stroke-miterlimit="10" fill="none" />
</svg>