<svg width="56" height="56" viewBox="0 0 56 56" fill="currentColor" stroke="currentColor"
  xmlns="http://www.w3.org/2000/svg">
  <path
    d="M25.5615 13.6052L27.4191 3.7023C27.4227 3.68415 27.4324 3.6678 27.4467 3.65602C27.4609 3.64425 27.4788 3.63778 27.4973 3.63773H28.5052C28.5234 3.63785 28.5411 3.64437 28.5551 3.65617C28.5691 3.66797 28.5785 3.68429 28.5816 3.7023L30.4409 13.6052H31.6731C31.6731 13.6052 31.6731 13.5899 31.6731 13.5814L29.773 3.47802C29.7176 3.18223 29.5605 2.91508 29.329 2.72273C29.0976 2.53038 28.8062 2.42489 28.5052 2.4245H27.4973C27.1961 2.42483 26.9045 2.53026 26.6727 2.72259C26.4409 2.91491 26.2836 3.18209 26.2278 3.47802L24.3328 13.5797C24.3328 13.5882 24.3328 13.595 24.3328 13.6035H25.5649L25.5615 13.6052Z" />
  <path
    d="M21.8661 17.2025V14.6435C21.8661 14.5286 21.9117 14.4184 21.993 14.3371C22.0743 14.2559 22.1845 14.2102 22.2995 14.2102H33.7C33.8151 14.2102 33.9255 14.2558 34.0071 14.337C34.0886 14.4182 34.1347 14.5285 34.1351 14.6435V17.2025H34.9747C35.0994 17.2038 35.2238 17.2146 35.3469 17.2348V14.6435C35.3465 14.207 35.1728 13.7884 34.8641 13.4798C34.5553 13.1711 34.1367 12.9975 33.7 12.997H22.2995C21.8631 12.9979 21.4449 13.1717 21.1365 13.4803C20.8282 13.789 20.6547 14.2073 20.6543 14.6435V17.2348C20.775 17.2161 21.8661 17.2025 21.8661 17.2025Z" />
  <path
    d="M34.9746 53.5755H21.0247C20.2228 53.5746 19.454 53.2556 18.8872 52.6885C18.3203 52.1215 18.0017 51.3527 18.0012 50.551V19.6255C18.0021 18.8239 18.3209 18.0554 18.8877 17.4884C19.4544 16.9215 20.223 16.6023 21.0247 16.601H34.9746C35.7767 16.6019 36.5456 16.9208 37.1128 17.4878C37.6799 18.0548 37.9989 18.8236 37.9998 19.6255V50.551C37.9994 51.353 37.6805 52.122 37.1133 52.6891C36.546 53.2563 35.7768 53.5751 34.9746 53.5755ZM21.0247 17.8091C20.5444 17.8095 20.0838 18.0005 19.7441 18.3401C19.4045 18.6797 19.2135 19.1402 19.213 19.6204V50.5459C19.2134 51.0263 19.4044 51.4869 19.744 51.8268C20.0836 52.1666 20.5442 52.358 21.0247 52.3589H34.9746C35.4553 52.358 35.916 52.1667 36.2559 51.8269C36.5958 51.4871 36.7871 51.0264 36.788 50.5459V19.6204C36.7871 19.14 36.5957 18.6795 36.2558 18.34C35.9159 18.0004 35.4551 17.8095 34.9746 17.8091H21.0247Z" />
  <path
    d="M37.3933 28.8639H18.6065C18.4456 28.8639 18.2913 28.8 18.1775 28.6862C18.0637 28.5725 17.9998 28.4182 17.9998 28.2573C17.9998 28.0964 18.0637 27.9421 18.1775 27.8284C18.2913 27.7146 18.4456 27.6507 18.6065 27.6507H37.3933C37.5542 27.6507 37.7086 27.7146 37.8223 27.8284C37.9361 27.9421 38.0001 28.0964 38.0001 28.2573C38.0001 28.4182 37.9361 28.5725 37.8223 28.6862C37.7086 28.8 37.5542 28.8639 37.3933 28.8639Z" />
  <path
    d="M37.3933 41.8697H18.6065C18.4456 41.8697 18.2913 41.8057 18.1775 41.692C18.0637 41.5782 17.9998 41.4239 17.9998 41.2631C17.9998 41.1022 18.0637 40.9479 18.1775 40.8341C18.2913 40.7203 18.4456 40.6564 18.6065 40.6564H37.3933C37.5542 40.6564 37.7086 40.7203 37.8223 40.8341C37.9361 40.9479 38.0001 41.1022 38.0001 41.2631C38.0001 41.4239 37.9361 41.5782 37.8223 41.692C37.7086 41.8057 37.5542 41.8697 37.3933 41.8697Z" />
  <path
    d="M21.816 26.3118C21.6551 26.3118 21.5007 26.2479 21.3869 26.1341C21.2732 26.0204 21.2092 25.8661 21.2092 25.7052V20.1811C21.2092 20.0202 21.2732 19.8659 21.3869 19.7521C21.5007 19.6384 21.6551 19.5745 21.816 19.5745C21.9769 19.5745 22.1312 19.6384 22.245 19.7521C22.3588 19.8659 22.4227 20.0202 22.4227 20.1811V25.7052C22.4227 25.8661 22.3588 26.0204 22.245 26.1341C22.1312 26.2479 21.9769 26.3118 21.816 26.3118Z" />
  <path
    d="M21.816 50.6886C21.6551 50.6886 21.5007 50.6247 21.3869 50.5109C21.2732 50.3971 21.2092 50.2428 21.2092 50.082V44.0209C21.2092 43.86 21.2732 43.7057 21.3869 43.592C21.5007 43.4782 21.6551 43.4143 21.816 43.4143C21.9769 43.4143 22.1312 43.4782 22.245 43.592C22.3588 43.7057 22.4227 43.86 22.4227 44.0209V50.0904C22.4205 50.2499 22.3556 50.402 22.242 50.5139C22.1285 50.6259 21.9754 50.6886 21.816 50.6886Z" />
</svg>