<svg width="56" height="56" viewBox="0 0 56 56" fill="currentColor" xmlns="http://www.w3.org/2000/svg">
  <path
    d="M22.3006 23.389C22.1884 23.3902 22.0783 23.3583 21.984 23.2975C21.8897 23.2366 21.8154 23.1493 21.7703 23.0465C21.7253 22.9437 21.7114 22.83 21.7305 22.7194C21.7496 22.6088 21.8008 22.5063 21.8778 22.4246C22.8183 21.4055 23.4132 19.8672 23.6833 19.049C25.3906 13.8443 26.0948 11.692 29.3504 11.991C29.4961 12.0121 29.628 12.0883 29.719 12.2039C29.81 12.3195 29.8532 12.4656 29.8396 12.612C29.826 12.7585 29.7566 12.8941 29.6459 12.991C29.5351 13.0878 29.3914 13.1383 29.2444 13.1323C26.9936 12.9233 26.4952 14.1562 24.7733 19.4011C24.4067 20.5262 23.754 22.0838 22.7218 23.2025C22.6684 23.2611 22.6033 23.3079 22.5308 23.34C22.4583 23.3721 22.3799 23.3888 22.3006 23.389Z" />
  <path
    d="M19.1973 38.2429C15.6586 38.5978 12.0916 37.9453 8.9079 36.3607C5.29215 34.5347 3.30981 31.9227 3.85643 29.7093C4.49952 27.0989 6.35001 26.853 9.53168 26.853H10.0735C13.3934 26.8739 17.5252 26.8996 19.9368 22.6384C21.1297 20.5311 21.8243 18.411 22.4352 16.54C23.7632 12.4781 24.6394 9.78898 29.3211 10.178C31.4513 10.3532 33.6458 12.2885 34.7873 15.0001C35.7519 17.3083 37.2552 23.4228 31.0204 31.4469C31.4672 31.5303 31.9213 31.568 32.3757 31.5594C38.4561 23.3441 36.8677 16.9949 35.8452 14.5565C34.5269 11.4173 32.006 9.25212 29.4143 9.03994C23.8339 8.58344 22.6796 12.1068 21.3452 16.188C20.7503 18.0075 20.0751 20.0698 18.9336 22.079C16.8532 25.7535 13.4111 25.7326 10.0767 25.7117C6.9272 25.6908 3.66834 25.6715 2.73908 29.4393C2.05902 32.1895 4.27607 35.311 8.3854 37.3878C11.1637 38.7712 14.2253 39.4909 17.3291 39.4902C18.2133 39.4903 19.0964 39.4296 19.9722 39.3086C19.7037 38.955 19.4417 38.6013 19.1973 38.2429Z" />
  <path
    d="M34.009 47C26.2485 47 20.1183 41.8307 17.3739 36.2659C15.337 32.1349 15.4447 28.3093 17.6376 26.5187C20.6457 24.0658 23.2373 26.0365 25.7437 27.9477C28.3948 29.9666 31.136 32.0545 35.0073 30.3668C37.1231 29.4442 38.9028 28.2 40.4736 27.1038C43.9929 24.6429 47.0331 22.5195 51.2196 26.239C53.1585 27.9621 53.8723 31.2075 53.0395 34.509C52.353 37.2255 49.5347 43.8319 38.2196 46.5001C36.8403 46.8298 35.4272 46.9976 34.009 47ZM20.5395 26.5123C19.8305 26.5123 19.128 26.7839 18.3627 27.4076C16.5942 28.8542 16.6119 32.1253 18.4029 35.758C21.4302 41.9014 28.8418 47.5353 37.9543 45.3846C48.6585 42.861 51.2984 36.7417 51.9254 34.2277C52.644 31.3811 52.054 28.5151 50.4559 27.0958C46.9447 23.9774 44.6311 25.5961 41.1311 28.0441C39.5234 29.1693 37.6874 30.4552 35.4672 31.4196C30.9768 33.3758 27.6906 30.8715 25.0508 28.8607C23.2244 27.4703 21.8707 26.5123 20.5395 26.5123Z" />
  <path
    d="M37.3257 33.6023C37.1886 33.599 37.0572 33.5467 36.9553 33.4549C36.8534 33.3631 36.7878 33.2378 36.7703 33.1018C36.7528 32.9658 36.7846 32.828 36.86 32.7134C36.9353 32.5989 37.0492 32.515 37.181 32.4771C38.517 32.1316 39.7534 31.3375 40.6907 30.6833C45.3241 27.438 47.0267 26.5604 49.4543 28.5937C49.5631 28.6937 49.6292 28.8319 49.6387 28.9794C49.6482 29.1268 49.6003 29.2723 49.5052 29.3854C49.4101 29.4986 49.275 29.5706 49.1281 29.5866C48.9811 29.6026 48.8336 29.5613 48.7164 29.4713C47.0154 28.044 46.0508 28.3237 41.3482 31.6188C40.337 32.3261 38.9832 33.1892 37.4688 33.583C37.4221 33.5957 37.374 33.6022 37.3257 33.6023Z" />
  <path
    d="M34.009 47C26.2485 47 20.1183 41.8307 17.3739 36.2659C15.337 32.1349 15.4447 28.3093 17.6376 26.5187C20.6457 24.0658 23.2373 26.0365 25.7437 27.9477C28.3948 29.9666 31.136 32.0545 35.0073 30.3668C37.1231 29.4442 38.9028 28.2 40.4736 27.1038C43.9929 24.6429 47.0331 22.5195 51.2196 26.239C53.1585 27.9621 53.8723 31.2075 53.0395 34.509C52.353 37.2255 49.5347 43.8319 38.2196 46.5001C36.8403 46.8298 35.4272 46.9976 34.009 47ZM20.5395 26.5123C19.8305 26.5123 19.128 26.7839 18.3627 27.4076C16.5942 28.8542 16.6119 32.1253 18.4029 35.758C21.4302 41.9014 28.8418 47.5353 37.9543 45.3846C48.6585 42.861 51.2984 36.7417 51.9254 34.2277C52.644 31.3811 52.054 28.5151 50.4559 27.0958C46.9447 23.9774 44.6311 25.5961 41.1311 28.0441C39.5234 29.1693 37.6874 30.4552 35.4672 31.4196C30.9768 33.3758 27.6906 30.8715 25.0508 28.8607C23.2244 27.4703 21.8707 26.5123 20.5395 26.5123Z" />
</svg>