<svg width="56" height="56" viewBox="0 0 56 56" fill="currentColor" stroke="currentColor"
  xmlns="http://www.w3.org/2000/svg">
  <path
    d="M12.2624 29.7637C12.1369 29.7634 12.0165 29.7145 11.9264 29.6272C11.8363 29.5399 11.7836 29.4211 11.7794 29.2958C11.4372 17.8957 17.921 14.8377 18.1969 14.7119C18.3125 14.6653 18.4417 14.6651 18.5574 14.7115C18.6731 14.7578 18.7664 14.8471 18.8177 14.9607C18.8691 15.0742 18.8746 15.2032 18.833 15.3207C18.7914 15.4382 18.706 15.5351 18.5947 15.591C18.5676 15.6046 17.0295 16.3308 15.5523 18.3515C14.1779 20.2328 12.5762 23.6518 12.7453 29.2674C12.749 29.3952 12.7017 29.5193 12.614 29.6123C12.5262 29.7054 12.4051 29.7598 12.2772 29.7637H12.2624Z"
    stroke-width="0.15" />
  <path
    d="M27.654 40.585C26.1607 41.887 24.3102 42.7098 22.343 42.9464C19.3764 43.3278 16.5938 42.4622 14.2914 40.443C11.3599 37.8732 9.60405 33.7617 9.59458 29.4473C9.57564 21.4433 13.8138 13.6056 18.4876 13.0051C18.6903 12.9784 18.8946 12.9653 19.0991 12.9659C22.017 12.9659 25.3732 15.5194 27.9204 19.2901C28.1085 19.0102 28.3033 18.7356 28.5048 18.4692C27.9366 17.6497 27.3138 16.8693 26.6407 16.1334C23.9082 13.158 20.97 11.7122 18.3659 12.0476C15.7618 12.383 13.2849 14.5307 11.3951 18.0959C9.63652 21.4271 8.62194 25.5643 8.63141 29.4486C8.64224 34.0363 10.5253 38.4169 13.6569 41.1679C15.7848 43.0357 18.2928 44 20.9808 44C21.4784 43.9996 21.9754 43.9671 22.4688 43.9026C24.6752 43.6376 26.7462 42.6987 28.3993 41.2139C28.1395 41.0181 27.8906 40.8082 27.654 40.585Z"
    stroke-width="0.15" />
  <path
    d="M35.3521 43.9431C34.9357 43.9427 34.5197 43.9184 34.1062 43.8701C30.7243 43.4819 28.1243 42.1375 26.3616 39.8748C23.4491 36.1339 23.6358 30.9336 24.0065 28.1677C24.4664 24.7324 26.0627 20.8792 28.1703 18.1107C30.0263 15.6762 33.1417 12.8847 37.4326 13.4554C42.1673 14.0857 45.2611 16.132 47.0102 24.7243C48.1411 30.2695 46.5381 36.5788 43.0223 40.4131C40.8876 42.7367 38.2565 43.9431 35.3521 43.9431ZM36.3572 14.3494C30.2129 14.3494 25.7583 22.3629 24.9629 28.2962C24.6125 30.9119 24.4218 35.8187 27.1273 39.2811C28.7249 41.3328 31.1112 42.5541 34.2212 42.9125C37.2974 43.2655 40.0962 42.1754 42.3161 39.7572C45.5803 36.2001 47.1238 30.0977 46.0687 24.9177C44.4264 16.8475 41.7222 14.9986 37.3095 14.4116C36.9938 14.3702 36.6757 14.3494 36.3572 14.3494Z"
    stroke-width="0.15" />
  <path
    d="M35.2187 39.411C34.7625 39.4129 34.3066 39.3858 33.8538 39.3298C32.8703 39.1946 29.5128 38.5589 27.5675 35.8594C26.2364 34.0132 25.8427 31.6072 26.3974 28.7074C27.4322 23.2894 30.875 20.6805 36.094 21.3581L36.2482 21.3783C38.8847 21.6732 40.9693 22.7633 42.2747 24.5283C43.7912 26.58 44.243 29.5162 43.5829 33.0219C42.5182 38.6712 37.6781 39.411 35.2187 39.411ZM34.5139 22.2169C29.6859 22.2169 27.9422 25.759 27.3443 28.8873C26.8411 31.5179 27.1793 33.6738 28.3481 35.2954C30.0688 37.6825 33.0936 38.2546 33.9796 38.3736C35.2187 38.54 41.4631 39.0499 42.6373 32.8433C43.2474 29.6082 42.8537 26.9316 41.501 25.1017C40.343 23.5355 38.5398 22.605 36.1427 22.3372L35.9722 22.3156C35.4888 22.2509 35.0017 22.2179 34.5139 22.2169Z"
    stroke-width="0.15" />
  <path
    d="M29.0002 30.9444C28.8791 30.9439 28.7625 30.8981 28.6734 30.816C28.5843 30.7339 28.5291 30.6215 28.5186 30.5008C28.3996 29.0131 29.0462 26.0674 31.2932 24.4485C34.23 22.3332 37.0099 23.1974 37.7864 23.5112C37.9003 23.5622 37.9899 23.6554 38.0366 23.7711C38.0833 23.8867 38.0834 24.016 38.0369 24.1318C37.9904 24.2475 37.9008 24.3408 37.7871 24.392C37.6733 24.4432 37.5441 24.4484 37.4266 24.4065C36.7597 24.136 34.3883 23.4043 31.8518 25.2316C29.9255 26.6178 29.3722 29.1538 29.4764 30.4224C29.4865 30.55 29.4456 30.6765 29.3627 30.774C29.2798 30.8716 29.1616 30.9324 29.034 30.9431L29.0002 30.9444Z"
    stroke-width="0.15" />
</svg>