<svg width="56" height="56" viewBox="0 0 56 56" fill="currentColor" stroke="currentColor"
  xmlns="http://www.w3.org/2000/svg">
  <path
    d="M21.4836 34.5994C15.083 34.5994 10.2965 30.7973 8.52482 29.1547C8.35927 29.001 8.22722 28.8149 8.13692 28.6079C8.04661 28.4008 8 28.1774 8 27.9516C8 27.7258 8.04661 27.5024 8.13692 27.2953C8.22722 27.0883 8.35927 26.9022 8.52482 26.7485C10.2965 25.1012 15.083 21.3038 21.4836 21.3038H21.662C27.7115 21.371 32.6452 23.4562 35.9139 24.8348C37.0877 25.3318 38.0158 25.7233 38.6102 25.8484C38.9242 25.9145 38.9902 25.8623 39.4213 25.443C39.7786 25.0794 40.1662 24.7469 40.5799 24.449C43.3376 22.4716 46.3097 22.4217 47.634 22.8701C47.6931 22.8899 47.7469 22.923 47.7912 22.9668C47.8356 23.0105 47.8694 23.0638 47.8901 23.1226C48.5598 24.9923 45.9933 27.3764 44.9215 28.2684C45.9933 29.1616 48.5598 31.5457 47.8901 33.4143C47.8694 33.4731 47.8356 33.5263 47.7912 33.5701C47.7469 33.6139 47.6931 33.6469 47.634 33.6668C46.3282 34.1093 43.3724 34.0537 40.5823 32.089C40.1594 31.7895 39.7649 31.4517 39.4039 31.08C38.9914 30.6699 38.9265 30.6166 38.6252 30.6873C38.0783 30.8112 37.2649 31.109 36.2337 31.4878C33.1261 32.6277 27.9224 34.5368 21.6748 34.6052L21.4836 34.5994ZM21.4836 22.1217C15.3773 22.1217 10.7889 25.7697 9.08563 27.3498C9.00274 27.4258 8.93656 27.5181 8.89128 27.621C8.846 27.7239 8.82262 27.8351 8.82262 27.9475C8.82262 28.06 8.846 28.1712 8.89128 28.2741C8.93656 28.377 9.00274 28.4693 9.08563 28.5453C10.8005 30.1393 15.4584 33.8417 21.6504 33.7722C27.7567 33.705 32.8758 31.8272 35.9348 30.7047C36.9926 30.3166 37.8292 30.0096 38.4283 29.8741C39.1849 29.7049 39.5499 30.0675 39.9728 30.488C40.3006 30.8265 40.659 31.134 41.0434 31.4067C43.4164 33.0783 45.9389 33.237 47.1451 32.937C47.3641 31.526 44.9146 29.2925 43.9946 28.5905C43.9441 28.5518 43.9032 28.5019 43.8751 28.4449C43.847 28.3878 43.8323 28.3251 43.8323 28.2615C43.8323 28.1979 43.847 28.1351 43.8751 28.0781C43.9032 28.021 43.9441 27.9712 43.9946 27.9325C44.9146 27.2305 47.3641 24.997 47.1451 23.586C45.925 23.2802 43.3909 23.4331 41.0469 25.114C40.6695 25.3865 40.3159 25.6908 39.9902 26.0234C39.5464 26.4624 39.1953 26.8099 38.434 26.6501C37.7609 26.5088 36.8015 26.1033 35.5872 25.5901C32.3811 24.2347 27.5366 22.1877 21.6504 22.1229L21.4836 22.1217Z"
    stroke-width="0.25" />
  <path
    d="M15.9762 33.6415C15.9139 33.6418 15.8524 33.6275 15.7966 33.5998C15.7477 33.5762 15.7039 33.5431 15.6678 33.5025C15.6316 33.4619 15.6039 33.4146 15.5861 33.3633C15.5684 33.3119 15.5609 33.2576 15.5642 33.2033C15.5676 33.1491 15.5815 33.096 15.6054 33.0472C18.5218 27.0569 15.7607 23.0741 15.6413 22.9085C15.5819 22.8194 15.5594 22.7107 15.5785 22.6053C15.5976 22.4999 15.6569 22.4061 15.7438 22.3435C15.8307 22.2809 15.9385 22.2545 16.0445 22.2697C16.1506 22.285 16.2465 22.3408 16.3122 22.4254C16.4432 22.6073 19.4905 26.9561 16.3481 33.4098C16.3144 33.4797 16.2615 33.5385 16.1957 33.5795C16.1299 33.6205 16.0538 33.642 15.9762 33.6415Z"
    stroke-width="0.25" />
  <path
    d="M14.7022 27.2375C15.2129 27.2375 15.6269 26.8236 15.6269 26.3131C15.6269 25.8025 15.2129 25.3886 14.7022 25.3886C14.1916 25.3886 13.7776 25.8025 13.7776 26.3131C13.7776 26.8236 14.1916 27.2375 14.7022 27.2375Z"
    stroke-width="0.25" />
  <path
    d="M29.6834 23.3556C29.593 23.3554 29.5052 23.3257 29.4332 23.271L25.8412 20.5382C25.788 20.4977 25.7453 20.445 25.7169 20.3845C25.6884 20.324 25.6751 20.2575 25.6779 20.1907L25.8412 16.7316C24.7324 17.1532 22.2493 19.6462 20.3004 22.0488C20.2673 22.0941 20.2254 22.1322 20.1771 22.1607C20.1289 22.1893 20.0753 22.2077 20.0197 22.215C19.9642 22.2222 19.9077 22.2181 19.8537 22.2028C19.7998 22.1875 19.7495 22.1614 19.7059 22.1262C19.6624 22.0909 19.6265 22.0471 19.6003 21.9975C19.5742 21.9479 19.5585 21.8935 19.554 21.8376C19.5496 21.7817 19.5566 21.7255 19.5745 21.6724C19.5925 21.6193 19.621 21.5704 19.6585 21.5287C20.8044 20.1154 24.6744 15.5326 26.3569 15.8662C26.4538 15.8855 26.5407 15.9388 26.6017 16.0166C26.6627 16.0944 26.6938 16.1914 26.6894 16.2902L26.5144 20.0134L29.9314 22.6142C30.0002 22.6666 30.0509 22.7393 30.0763 22.822C30.1016 22.9047 30.1004 22.9932 30.0728 23.0752C30.0451 23.1572 29.9925 23.2285 29.9222 23.279C29.852 23.3294 29.7677 23.3567 29.6811 23.3567L29.6834 23.3556Z"
    stroke-width="0.25" />
  <path
    d="M29.6834 23.3556C29.593 23.3554 29.5052 23.3257 29.4332 23.271L25.8412 20.5382C25.788 20.4977 25.7453 20.445 25.7169 20.3845C25.6884 20.324 25.6751 20.2575 25.6779 20.1907L25.8412 16.7316C24.7324 17.1532 22.2493 19.6462 20.3004 22.0488C20.2673 22.0941 20.2254 22.1322 20.1771 22.1607C20.1289 22.1893 20.0753 22.2077 20.0197 22.215C19.9642 22.2222 19.9077 22.2181 19.8537 22.2028C19.7998 22.1875 19.7495 22.1614 19.7059 22.1262C19.6624 22.0909 19.6265 22.0471 19.6003 21.9975C19.5742 21.9479 19.5585 21.8935 19.554 21.8376C19.5496 21.7817 19.5566 21.7255 19.5745 21.6724C19.5925 21.6193 19.621 21.5704 19.6585 21.5287C20.8044 20.1154 24.6744 15.5326 26.3569 15.8662C26.4538 15.8855 26.5407 15.9388 26.6017 16.0166C26.6627 16.0944 26.6938 16.1914 26.6894 16.2902L26.5144 20.0134L29.9314 22.6142C30.0002 22.6666 30.0509 22.7393 30.0763 22.822C30.1016 22.9047 30.1004 22.9932 30.0728 23.0752C30.0451 23.1572 29.9925 23.2285 29.9222 23.279C29.852 23.3294 29.7677 23.3567 29.6811 23.3567L29.6834 23.3556Z"
    stroke-width="0.25" />
  <path
    d="M26.1742 40.1509C24.4083 40.1509 20.7666 35.8345 19.6612 34.4745C19.5986 34.3888 19.5713 34.2824 19.585 34.1772C19.5987 34.0719 19.6523 33.976 19.7347 33.9092C19.8172 33.8424 19.9222 33.8098 20.0279 33.8182C20.1337 33.8266 20.2322 33.8754 20.3031 33.9543C22.252 36.357 24.7351 38.8499 25.844 39.2716L25.6806 35.8079C25.6776 35.7411 25.6909 35.6747 25.7191 35.6142C25.7473 35.5537 25.7898 35.5009 25.8428 35.4603L29.181 32.9117C29.2239 32.8762 29.2735 32.8496 29.3269 32.8337C29.3803 32.8178 29.4364 32.8129 29.4917 32.8192C29.5471 32.8255 29.6006 32.8429 29.6491 32.8704C29.6975 32.8978 29.7399 32.9348 29.7738 32.9791C29.8076 33.0234 29.8321 33.074 29.8459 33.128C29.8596 33.182 29.8623 33.2382 29.8538 33.2932C29.8453 33.3483 29.8258 33.401 29.7964 33.4484C29.767 33.4957 29.7283 33.5366 29.6827 33.5686L26.5172 35.9897L26.6921 39.713C26.6966 39.8119 26.6655 39.9091 26.6045 39.987C26.5435 40.065 26.4566 40.1186 26.3596 40.1381C26.2983 40.1484 26.2363 40.1526 26.1742 40.1509Z"
    stroke-width="0.25" />
  <path
    d="M38.9268 30.6548C38.8495 30.6546 38.7738 30.6327 38.7083 30.5917C38.6428 30.5506 38.5901 30.492 38.5562 30.4226C38.5223 30.3531 38.5085 30.2755 38.5165 30.1986C38.5245 30.1217 38.5538 30.0486 38.6013 29.9875C39.1968 29.2253 39.395 27.3428 38.4993 26.6373C38.4516 26.606 38.4109 26.5652 38.3797 26.5174C38.3486 26.4695 38.3278 26.4158 38.3185 26.3595C38.3092 26.3032 38.3117 26.2456 38.3258 26.1904C38.3399 26.1351 38.3654 26.0834 38.4005 26.0384C38.4356 25.9935 38.4797 25.9563 38.53 25.9293C38.5802 25.9022 38.6355 25.8859 38.6924 25.8813C38.7493 25.8768 38.8065 25.884 38.8604 25.9027C38.9143 25.9213 38.9638 25.951 39.0056 25.9897C40.3335 27.0323 40.0693 29.4454 39.249 30.4961C39.2108 30.5452 39.162 30.5851 39.1062 30.6126C39.0504 30.64 38.9891 30.6545 38.9268 30.6548Z"
    stroke-width="0.25" />
  <path
    d="M25.8266 31.5886C25.7338 31.5885 25.6436 31.5572 25.5707 31.4997C25.4978 31.4422 25.4464 31.3618 25.4247 31.2715C25.403 31.1812 25.4124 31.0863 25.4512 31.002C25.4901 30.9176 25.5562 30.8488 25.6389 30.8066C26.0619 30.5923 26.3457 30.0363 26.3457 29.4234C26.3516 29.1993 26.3127 28.9762 26.2311 28.7673C26.1495 28.5584 26.027 28.3679 25.8707 28.2071C25.8294 28.1684 25.7965 28.1216 25.774 28.0697C25.7515 28.0178 25.7399 27.9619 25.7399 27.9053C25.7399 27.8487 25.7515 27.7928 25.774 27.7408C25.7965 27.6889 25.8294 27.6422 25.8707 27.6035C26.027 27.4427 26.1495 27.2522 26.2311 27.0433C26.3127 26.8344 26.3516 26.6113 26.3457 26.3871C26.3457 25.7245 26.0178 25.1395 25.5497 24.9646C25.4506 24.9235 25.3713 24.8455 25.3286 24.7471C25.2859 24.6486 25.2831 24.5375 25.3209 24.437C25.3586 24.3366 25.4339 24.2548 25.5309 24.2088C25.6278 24.1629 25.7389 24.1564 25.8405 24.1907C26.6366 24.4896 27.1719 25.3723 27.1719 26.3918C27.1787 26.9349 27.014 27.4663 26.7014 27.9105C27.0142 28.3542 27.1788 28.8853 27.1719 29.4281C27.1719 30.3548 26.7177 31.1901 26.0132 31.548C25.955 31.5757 25.8911 31.5896 25.8266 31.5886Z"
    stroke-width="0.25" />
  <path
    d="M21.2692 31.5886C21.1762 31.5888 21.0859 31.5577 21.0128 31.5003C20.9397 31.4429 20.888 31.3625 20.8662 31.2722C20.8444 31.1818 20.8537 31.0867 20.8925 31.0023C20.9313 30.9178 20.9975 30.8489 21.0803 30.8067C21.5032 30.5912 21.7871 30.0363 21.7871 29.4235C21.7933 29.1993 21.7544 28.9761 21.6728 28.7672C21.5912 28.5583 21.4686 28.3678 21.3121 28.2071C21.2708 28.1684 21.2379 28.1217 21.2154 28.0698C21.1929 28.0179 21.1813 27.9619 21.1813 27.9053C21.1813 27.8488 21.1929 27.7928 21.2154 27.7409C21.2379 27.689 21.2708 27.6423 21.3121 27.6036C21.4686 27.4429 21.5912 27.2524 21.6728 27.0435C21.7544 26.8346 21.7933 26.6114 21.7871 26.3872C21.7871 25.7246 21.4604 25.1395 20.9923 24.9646C20.8944 24.9228 20.8164 24.8449 20.7746 24.7471C20.7327 24.6492 20.7302 24.539 20.7675 24.4394C20.8048 24.3397 20.879 24.2583 20.9749 24.212C21.0707 24.1657 21.1807 24.1581 21.2819 24.1908C22.0791 24.4897 22.6133 25.3724 22.6133 26.3918C22.62 26.9349 22.4554 27.4663 22.1428 27.9106C22.4556 28.3543 22.6202 28.8854 22.6133 29.4281C22.6133 30.3549 22.1591 31.1901 21.4546 31.5481C21.3967 31.5757 21.3333 31.5895 21.2692 31.5886Z"
    stroke-width="0.25" />
  <path
    d="M23.2221 20.464C23.142 20.4631 23.0639 20.4388 22.9973 20.3943C22.9308 20.3497 22.8786 20.2867 22.8473 20.213C22.816 20.1392 22.8068 20.058 22.8209 19.9792C22.835 19.9003 22.8717 19.8273 22.9266 19.769L24.4109 18.2468C24.4877 18.1684 24.5925 18.1238 24.7023 18.1227C24.812 18.1216 24.9177 18.1642 24.996 18.241C25.0744 18.3178 25.119 18.4226 25.1201 18.5323C25.1212 18.642 25.0786 18.7476 25.0018 18.826L23.5187 20.3482C23.4793 20.386 23.4328 20.4157 23.3819 20.4356C23.331 20.4555 23.2767 20.4651 23.2221 20.464Z"
    stroke-width="0.25" />
  <path
    d="M41.4851 26.5935C41.3991 26.5936 41.3152 26.5669 41.2451 26.5172C41.175 26.4675 41.1221 26.3971 41.0938 26.316C41.0656 26.2348 41.0633 26.1469 41.0873 26.0644C41.1113 25.9818 41.1604 25.9088 41.2278 25.8555C42.3702 25.0106 43.6888 24.4348 45.0851 24.1711C45.1399 24.1579 45.1969 24.1561 45.2524 24.1658C45.308 24.1754 45.361 24.1964 45.4081 24.2273C45.4552 24.2583 45.4955 24.2985 45.5265 24.3457C45.5574 24.3928 45.5784 24.4457 45.5881 24.5013C45.5977 24.5568 45.5959 24.6137 45.5828 24.6685C45.5696 24.7234 45.5453 24.7749 45.5114 24.8199C45.4775 24.865 45.4347 24.9026 45.3857 24.9305C45.3367 24.9584 45.2825 24.9759 45.2265 24.982C43.2451 25.3296 41.7504 26.488 41.74 26.5019C41.6677 26.5602 41.5779 26.5924 41.4851 26.5935Z"
    stroke-width="0.25" />
</svg>