<svg width="56" height="56" viewBox="0 0 56 56" fill="currentColor" stroke="currentColor"
  xmlns="http://www.w3.org/2000/svg">
  <path fill="none"
    d="M15.25 44.8108C15.1984 44.8104 15.1473 44.8003 15.0994 44.7811C15.0185 44.7492 13.3499 44.1551 12.6177 42.0114C12.1923 40.7571 11.2492 37.8221 16.8375 30.2281C19.0102 27.2702 20.811 24.9829 22.3997 22.9635C23.9884 20.9441 25.365 19.1893 26.7427 17.2543C26.8727 17.0707 27.184 16.6214 27.541 16.0889C27.1414 15.6548 26.7829 15.1845 26.4701 14.6841C25.9443 13.8677 25.2885 12.8529 26.104 12.1824C26.5933 11.7788 27.1441 12.0285 27.4726 12.1824C27.5034 12.1961 27.5399 12.2132 27.5764 12.228C27.5764 12.1231 27.5684 11.9749 27.5604 11.8734C27.5239 11.4025 27.4566 10.5256 28.3473 10.2953C29.2381 10.065 29.595 10.6625 29.7946 10.9794C29.845 11.0733 29.9092 11.159 29.9851 11.2337C30.0626 11.2428 30.3272 10.9407 30.4413 10.8118C30.7994 10.4048 31.34 9.78561 32.1235 10.0741C32.9914 10.3865 32.8249 11.2315 32.7348 11.6853C32.704 11.8381 32.647 12.1243 32.6846 12.1927C32.7633 12.2748 32.9127 12.2816 33.1602 12.2828C33.4955 12.2828 34.0578 12.2896 34.2448 12.8974C34.4216 13.4675 33.9277 13.9099 33.5674 14.2315C33.4318 14.3421 33.3087 14.4671 33.2001 14.6043C33.2584 14.6857 33.3292 14.7573 33.41 14.8164C33.6643 15.0342 34.0943 15.3991 33.9198 16.1197C33.8639 16.3478 33.6917 16.5507 33.4157 16.7081C32.5455 17.2007 30.3831 17.3375 29.5255 17.2486C29.1833 17.675 28.2253 19.0034 27.9561 19.3968C26.3241 21.7776 24.5187 25.2976 22.7715 28.7024C21.8009 30.5941 20.884 32.382 20.0229 33.9259C19.6648 34.5679 19.3295 35.1631 19.0147 35.7206C16.7429 39.7503 15.8499 41.1939 15.6754 43.5884C15.6651 43.7241 15.3458 44.3353 15.4758 44.7435C15.5077 44.8187 15.3321 44.8108 15.25 44.8108ZM26.721 12.7776C26.6852 12.7759 26.6499 12.7873 26.6218 12.8096C26.4826 12.9236 26.4256 13.1129 27.1555 14.2428C27.6049 14.9407 28.0234 15.4629 28.3314 15.7126C28.4107 15.7768 28.4631 15.8684 28.4781 15.9694C28.4931 16.0703 28.4696 16.1732 28.4123 16.2577C27.9641 16.9156 27.5581 17.5051 27.4019 17.7252C26.0185 19.6762 24.6362 21.4333 23.0349 23.4664C21.4497 25.48 19.6534 27.7628 17.4888 30.7092C12.1558 37.9669 13.0226 40.6294 13.3921 41.7594C13.432 41.8814 14.024 43.3775 14.8645 43.5838C14.9968 41.0605 16.1555 39.1368 18.311 35.3193C18.6258 34.7628 18.9611 34.1676 19.3181 33.5279C20.1723 31.9954 21.0859 30.2144 22.0553 28.3284C23.8128 24.9076 25.5634 21.3101 27.2912 18.935C28.8503 16.7925 29.2301 16.3329 29.5118 16.4264C30.0136 16.5747 32.8283 16.3546 33.1385 15.9179C33.1864 15.7024 33.1191 15.6328 32.8888 15.4367C32.7017 15.2771 32.4691 15.0787 32.3995 14.7411C32.3037 14.2748 32.6915 13.9304 33.0325 13.626C33.1739 13.4994 33.4681 13.2372 33.4738 13.1345C33.4715 13.1278 33.4684 13.1213 33.4647 13.1151C33.3644 13.0993 33.2628 13.0936 33.1613 13.098C32.8511 13.098 32.4246 13.098 32.1007 12.756C31.7768 12.4139 31.8657 11.9224 31.9433 11.5313C32.0573 10.9487 32.0106 10.8996 31.8543 10.8472C31.6262 10.7662 31.4517 10.9099 31.056 11.3569C30.7435 11.7115 30.39 12.114 29.879 12.0479C29.4639 11.9943 29.2563 11.6625 29.1046 11.4196C28.9016 11.0958 28.8378 11.0137 28.5503 11.0878C28.3793 11.1322 28.3222 11.2018 28.3701 11.8175C28.4009 12.2212 28.4443 12.7754 27.9778 13.0239C27.6893 13.179 27.395 13.0467 27.1373 12.9293C27.0088 12.8541 26.8678 12.8027 26.721 12.7776Z" />
  <path
    d="M28.6521 24.8643C28.9783 24.4478 29.2961 24.0445 29.6055 23.6545C29.6831 23.5565 29.7595 23.4618 29.8336 23.3683C29.9001 23.286 29.9319 23.1811 29.9223 23.0757C29.9128 22.9704 29.8625 22.8729 29.7823 22.8039C29.3431 22.4329 28.9848 21.9758 28.7296 21.4607C28.5095 21.0046 28.2381 20.4345 28.2529 20.2714C28.2847 20.247 28.3196 20.2271 28.3567 20.2121C28.4331 20.1779 28.5107 20.2121 28.7365 20.3866C28.9315 20.5359 29.2246 20.7606 29.5679 20.6066C30.0241 20.4025 30.0571 19.8598 30.0845 19.3809C30.121 18.772 30.1769 18.4903 30.413 18.4288C30.6491 18.3672 30.6559 18.3752 30.8065 18.7321C30.9205 18.9966 31.0859 19.3968 31.5432 19.4595C32.0005 19.5223 32.3062 19.1608 32.5868 18.8427C32.9962 18.3797 33.1422 18.2908 33.3281 18.3866C33.4706 18.4641 33.5185 18.4892 33.3018 19.0148C33.1524 19.3786 32.9471 19.8769 33.3189 20.2691C33.6907 20.6614 34.1504 20.5622 34.4275 20.5074C34.4606 20.5006 34.4994 20.4926 34.5416 20.4869C34.3873 20.6763 34.213 20.8484 34.0215 21C33.6132 21.3501 33.1912 21.7127 33.2881 22.1836C33.3817 22.6397 33.8493 22.7754 34.2245 22.8837C34.3728 22.9259 34.6488 23.0057 34.6932 23.0582C34.6939 23.0673 34.6939 23.0764 34.6932 23.0855C34.3819 23.5211 31.5683 23.7412 31.0676 23.5941C30.9898 23.5696 30.9137 23.5403 30.8395 23.5063C30.7518 23.4662 30.6527 23.4587 30.5599 23.485C30.4671 23.5113 30.3867 23.5698 30.3332 23.65C29.7139 24.5793 29.1767 25.4311 28.8209 25.9955C28.6783 26.2235 28.5654 26.4014 28.4867 26.5234C28.1343 27.0662 26.7018 29.3444 25.0447 31.9818C22.7478 35.6306 19.8897 40.1825 19.4563 40.8256C19.2373 41.1471 19.0469 41.4641 18.877 41.7686C19.5259 41.2806 20.1874 40.7424 20.8454 40.1722C21.9152 38.4915 23.9168 35.3079 25.7358 32.4185C27.3918 29.7834 28.822 27.5074 29.171 26.9692C29.2508 26.8461 29.3672 26.6625 29.5131 26.4322C29.8313 25.9271 30.2955 25.1893 30.8338 24.3797C31.3835 24.5428 34.001 24.439 34.9806 23.8849C35.2589 23.7275 35.4288 23.5291 35.4847 23.2965C35.6832 22.463 34.854 22.2247 34.4583 22.1095C34.3682 22.0833 34.237 22.0456 34.1481 22.0091C34.2768 21.8723 34.4144 21.7439 34.5598 21.6249C34.9943 21.252 35.5349 20.7879 35.3581 20.211C35.1528 19.5451 34.5438 19.6659 34.2838 19.7172C34.0637 19.7606 33.9839 19.7651 33.9417 19.7298C33.9695 19.5935 34.0135 19.4611 34.0728 19.3353C34.2336 18.9442 34.5678 18.13 33.7307 17.6807C32.9323 17.252 32.3461 17.9088 31.996 18.3113C31.8984 18.4294 31.7908 18.5389 31.6744 18.6386C31.6365 18.5689 31.603 18.4969 31.574 18.4231C31.436 18.0947 31.1463 17.4094 30.2271 17.6477C29.3774 17.8689 29.325 18.7537 29.2907 19.3398C29.2839 19.4653 29.2736 19.6306 29.2554 19.7526C29.0273 19.5736 28.5871 19.2406 28.0488 19.4812C27.9298 19.5267 27.8212 19.5955 27.7294 19.6837C27.6375 19.7718 27.5642 19.8774 27.5139 19.9943C27.3542 20.4288 27.5903 20.9236 28.0191 21.8187C28.2626 22.3186 28.5901 22.7729 28.9874 23.1619C28.6779 23.5504 28.3605 23.9529 28.0351 24.3695C26.4258 26.4219 24.6033 28.7378 22.4626 31.008C21.5868 31.9373 20.444 33.1836 19.2898 34.4641C18.5827 35.7184 17.968 36.8016 17.4468 37.7572C19.194 35.7686 21.4647 33.252 23.0546 31.5656C25.1975 29.2543 27.0326 26.9168 28.6521 24.8643Z" />
  <path
    d="M18.2579 46C16.1526 46 14.5593 44.3762 14.4943 44.3067C14.4444 44.2553 14.409 44.1916 14.3917 44.1222C14.3744 44.0527 14.3757 43.9799 14.3957 43.9111C14.4156 43.8423 14.4533 43.78 14.5051 43.7306C14.5569 43.6811 14.6208 43.6462 14.6905 43.6294C17.942 42.838 24.0424 36.8734 27.1218 33.2998C30.6333 29.2268 33.3351 26.0227 34.633 24.4754C35.0025 24.0341 36.2206 22.6761 37.052 21.7525C36.6597 21.248 36.3692 20.6722 36.1966 20.0569C35.9366 19.0957 35.794 18.5666 36.029 18.1675C36.0997 18.0616 36.1909 17.9709 36.2973 17.9008C36.4036 17.8306 36.523 17.7825 36.6483 17.7593C36.8181 17.7237 36.9936 17.7247 37.1631 17.762C37.3326 17.7994 37.4922 17.8723 37.6314 17.976C37.8401 17.3055 38.2757 16.4161 39.1265 16.3545C39.4493 16.3317 39.6968 16.4047 39.8781 16.5723C40.145 16.8255 40.137 17.1869 40.1313 17.4503C40.1313 17.4959 40.1313 17.5541 40.1313 17.6054C40.2831 17.53 40.4298 17.4447 40.5704 17.35C41.0905 17.0193 41.801 16.5666 42.5184 16.984C42.629 17.0409 42.7267 17.1201 42.8052 17.2167C42.8837 17.3132 42.9414 17.425 42.9745 17.545C43.0749 17.952 42.8411 18.3238 42.6324 18.6521C42.5391 18.7823 42.4624 18.9237 42.4043 19.0729C42.4454 19.1151 42.5184 19.1242 42.7464 19.1219C43.0099 19.1219 43.6315 19.1094 43.7136 19.8004C43.7843 20.4002 43.1684 20.7593 42.6735 21.0478C42.5089 21.1389 42.3504 21.2406 42.199 21.3523C42.2811 21.4036 42.4032 21.4663 42.4864 21.5062C42.8582 21.6921 43.6269 22.0763 43.2848 22.8585C43.1878 23.0786 42.9848 23.2428 42.6826 23.3477C41.6128 23.7183 38.9931 23.3477 38.505 23.082L38.4742 23.0649C37.807 24.0307 36.8307 25.4937 35.883 26.9121C34.5817 28.862 33.3511 30.7046 32.8253 31.4173L31.8753 32.7058C30.2786 34.8825 28.0821 37.8643 25.955 40.5598C24.3584 42.5906 21.2209 45.9988 18.2556 46H18.2579ZM15.6017 44.1881C16.1719 44.6123 17.1436 45.187 18.2545 45.187C20.8776 45.187 23.8041 41.9715 25.3152 40.0558C27.4343 37.3717 29.6217 34.3968 31.2184 32.2246C31.5605 31.7571 31.8822 31.3226 32.1696 30.9338C32.6839 30.2371 33.9658 28.3112 35.2055 26.4606C36.2685 24.8642 37.3725 23.2246 38.0294 22.277C38.0606 22.2323 38.1005 22.1943 38.1467 22.1653C38.1929 22.1363 38.2444 22.1169 38.2983 22.1083C38.3522 22.0997 38.4072 22.102 38.4602 22.1151C38.5131 22.1282 38.5629 22.1519 38.6065 22.1846C38.6951 22.251 38.7885 22.3109 38.8859 22.3637C39.3524 22.5997 42.1591 22.8905 42.5446 22.5176C42.5483 22.5089 42.5506 22.4997 42.5514 22.4902C42.5184 22.431 42.2606 22.3032 42.1226 22.2348C41.7725 22.0604 41.3379 21.8437 41.3243 21.3774C41.3106 20.911 41.7953 20.6168 42.2595 20.3454C42.475 20.2311 42.6773 20.0934 42.8628 19.9349H42.7487C42.4648 19.9349 41.9914 19.9452 41.7018 19.5016C41.4121 19.0581 41.7086 18.5712 41.9299 18.22C42.0165 18.0809 42.1796 17.822 42.1682 17.7377C42.147 17.7179 42.1232 17.701 42.0975 17.6875C41.8295 17.5313 41.4725 17.7331 40.9958 18.0364C40.5886 18.2952 40.1975 18.5415 39.8006 18.4081C39.2896 18.2394 39.301 17.7137 39.3079 17.4309C39.3123 17.3431 39.3096 17.255 39.2999 17.1675C39.2586 17.1625 39.2169 17.1625 39.1756 17.1675C38.6612 17.204 38.335 18.2975 38.2632 18.8209C38.2513 18.9011 38.2158 18.9758 38.1611 19.0357C38.1065 19.0955 38.0352 19.1377 37.9564 19.1568C37.8777 19.1759 37.795 19.171 37.719 19.1429C37.643 19.1148 37.5772 19.0646 37.5299 18.9988C37.4158 18.8357 37.0737 18.4937 36.8364 18.5507C36.7969 18.5588 36.7586 18.5718 36.7224 18.5894C36.679 18.7456 36.8433 19.3545 36.9767 19.8437C37.1523 20.4559 37.4642 21.0203 37.8891 21.4948C37.9555 21.5692 37.9922 21.6654 37.9922 21.765C37.9922 21.8647 37.9555 21.9609 37.8891 22.0353C37.0759 22.9372 35.6526 24.521 35.2534 24.9999C33.9544 26.5495 31.2503 29.7571 27.7353 33.8323C25.6106 36.2998 19.5387 42.6522 15.6017 44.1881Z" />
  <path
    d="M31.4048 14.219C31.3246 14.203 31.2511 14.1633 31.1938 14.105C31.1009 14.0036 31.0321 13.8826 30.9926 13.7509C30.9531 13.6192 30.9439 13.4802 30.9657 13.3445C30.7215 13.4628 30.4466 13.5027 30.1788 13.4585C30.1224 13.4536 30.0677 13.4371 30.0181 13.4099C29.9685 13.3827 29.9251 13.3455 29.8906 13.3006C29.8562 13.2557 29.8316 13.2041 29.8182 13.1492C29.8048 13.0942 29.803 13.037 29.813 12.9814C29.8229 12.9257 29.8444 12.8727 29.8759 12.8258C29.9075 12.7788 29.9485 12.739 29.9963 12.7088C30.0442 12.6786 30.0978 12.6587 30.1537 12.6503C30.2097 12.642 30.2668 12.6454 30.3213 12.6603C30.4707 12.6865 30.5882 12.6341 30.765 12.5463C30.9418 12.4585 31.2303 12.3068 31.5223 12.4881C31.8644 12.7014 31.8165 13.0936 31.7903 13.3034C31.7744 13.383 31.7709 13.4645 31.78 13.5451C31.8425 13.6067 31.8834 13.6868 31.8964 13.7735C31.9094 13.8602 31.8939 13.9488 31.8523 14.026C31.8106 14.1031 31.745 14.1647 31.6653 14.2013C31.5856 14.238 31.4962 14.2478 31.4105 14.2293L31.4048 14.219Z" />
  <path
    d="M32.5023 21.5292C32.4167 21.5296 32.3333 21.5028 32.2639 21.4528C31.9537 21.2247 31.9799 20.8576 32.0107 20.593C31.8146 20.7071 31.5431 20.8211 31.2329 20.7071C31.136 20.6678 31.0579 20.5927 31.0148 20.4973C30.9718 20.402 30.9671 20.2938 31.0017 20.1951C31.0363 20.0964 31.1076 20.0148 31.2008 19.9673C31.2939 19.9197 31.4018 19.9098 31.5021 19.9397C31.5623 19.9148 31.6207 19.8854 31.6766 19.8519C31.8659 19.7378 32.1841 19.5611 32.5228 19.7378C32.9072 19.9442 32.8547 20.3821 32.8239 20.6432C32.8141 20.7116 32.808 20.7805 32.8057 20.8496C32.8577 20.9082 32.8917 20.9806 32.9036 21.058C32.9155 21.1354 32.9048 21.2147 32.8728 21.2862C32.8407 21.3577 32.7887 21.4185 32.723 21.4612C32.6573 21.5038 32.5807 21.5267 32.5023 21.5269V21.5292Z" />
  <path
    d="M40.8233 20.7444C40.7296 20.7447 40.6387 20.712 40.5667 20.6521C40.2701 20.4103 40.318 20.0409 40.3659 19.7786C40.1629 19.8756 39.8858 19.9805 39.5824 19.8413C39.4886 19.7958 39.4159 19.7161 39.3791 19.6185C39.3424 19.521 39.3445 19.413 39.385 19.317C39.4255 19.2209 39.5013 19.1441 39.5968 19.1022C39.6924 19.0604 39.8003 19.0568 39.8984 19.0922C39.9602 19.0706 40.0204 19.0447 40.0785 19.0147C40.2747 18.9177 40.6032 18.7558 40.9293 18.9576C41.3011 19.1857 41.2213 19.6224 41.1734 19.8813C41.1599 19.9487 41.15 20.0168 41.1438 20.0854C41.1911 20.1454 41.2206 20.2176 41.2288 20.2937C41.237 20.3697 41.2236 20.4466 41.1902 20.5153C41.1567 20.5841 41.1046 20.6421 41.0397 20.6826C40.9748 20.7231 40.8998 20.7446 40.8233 20.7444Z" />
  <path
    d="M14.1195 39.764C14.0551 39.7644 13.9916 39.7494 13.9342 39.7204C13.8768 39.6913 13.8272 39.6491 13.7894 39.597C13.7516 39.545 13.7268 39.4846 13.7169 39.4211C13.7071 39.3575 13.7125 39.2925 13.7328 39.2315C13.7864 39.065 15.0855 35.1152 16.7734 32.7868C16.8035 32.7405 16.8427 32.7009 16.8887 32.6703C16.9346 32.6397 16.9863 32.6187 17.0406 32.6087C17.0948 32.5987 17.1506 32.5998 17.2045 32.612C17.2583 32.6242 17.3091 32.6472 17.3538 32.6796C17.3984 32.712 17.436 32.7532 17.4643 32.8006C17.4925 32.848 17.5109 32.9007 17.5181 32.9554C17.5254 33.0101 17.5215 33.0657 17.5066 33.1189C17.4916 33.172 17.4661 33.2216 17.4314 33.2646C15.8199 35.488 14.5186 39.4436 14.5061 39.4835C14.4796 39.5651 14.4279 39.6362 14.3584 39.6866C14.2889 39.737 14.2053 39.7641 14.1195 39.764Z" />
  <path
    d="M18.8082 44.0138C18.7206 44.0147 18.635 43.9873 18.5643 43.9355C18.4935 43.8838 18.4414 43.8106 18.4157 43.7268C18.3901 43.643 18.3922 43.5531 18.4219 43.4707C18.4515 43.3882 18.507 43.3175 18.5801 43.2692C18.6144 43.2464 22.0518 40.9442 23.7876 38.8314C23.8215 38.7901 23.8631 38.7559 23.9102 38.7308C23.9572 38.7056 24.0088 38.6899 24.0619 38.6847C24.115 38.6795 24.1686 38.6847 24.2197 38.7002C24.2708 38.7157 24.3183 38.7411 24.3596 38.7749C24.4008 38.8088 24.435 38.8504 24.4602 38.8974C24.4853 38.9445 24.501 38.996 24.5062 39.0491C24.5115 39.1022 24.5062 39.1559 24.4907 39.2069C24.4753 39.258 24.4499 39.3055 24.416 39.3468C22.6026 41.5543 19.1755 43.8496 19.0306 43.9454C18.965 43.9899 18.8875 44.0137 18.8082 44.0138Z" />
  <path
    d="M19.0074 37.8257C18.9279 37.8263 18.85 37.8035 18.7832 37.7603C18.7165 37.7171 18.6639 37.6553 18.6319 37.5826C18.5999 37.5098 18.5899 37.4293 18.6031 37.3509C18.6163 37.2726 18.6522 37.1998 18.7063 37.1415L22.1608 33.3137C22.1966 33.2741 22.2399 33.2419 22.2881 33.219C22.3363 33.1962 22.3886 33.183 22.4419 33.1803C22.4953 33.1776 22.5486 33.1854 22.5989 33.2033C22.6492 33.2212 22.6955 33.2488 22.7351 33.2846C22.7747 33.3204 22.8069 33.3637 22.8298 33.4119C22.8527 33.4601 22.8658 33.5124 22.8685 33.5657C22.8712 33.619 22.8634 33.6723 22.8455 33.7226C22.8276 33.7729 22.7999 33.8191 22.7642 33.8588L19.3096 37.6866C19.272 37.7298 19.2256 37.7646 19.1735 37.7886C19.1213 37.8126 19.0647 37.8252 19.0074 37.8257Z" />
</svg>