<svg width="56" height="56" viewBox="0 0 56 56" fill="currentColor" stroke="currentColor"
  xmlns="http://www.w3.org/2000/svg">
  <path
    d="M31.4802 34.5487C31.3995 34.5486 31.3204 34.5267 31.2511 34.4854C30.8004 34.2103 30.2956 34.0357 29.7712 33.9735C29.2469 33.9112 28.7153 33.9628 28.2126 34.1246C28.1543 34.147 28.092 34.1569 28.0297 34.154C27.9673 34.151 27.9063 34.1352 27.8504 34.1075C27.7944 34.0798 27.7448 34.0408 27.7047 33.9929C27.6646 33.9451 27.6349 33.8895 27.6173 33.8296C27.5998 33.7697 27.5949 33.7068 27.6028 33.6449C27.6108 33.583 27.6315 33.5235 27.6636 33.47C27.6958 33.4165 27.7386 33.3702 27.7896 33.3341C27.8405 33.298 27.8983 33.2728 27.9594 33.2601C28.5812 33.0647 29.2373 33.0035 29.8845 33.0808C30.5316 33.158 31.155 33.3719 31.7132 33.7082C31.7984 33.7588 31.8647 33.836 31.9017 33.9279C31.9388 34.0198 31.9446 34.1213 31.9182 34.2169C31.8919 34.3124 31.8349 34.3966 31.756 34.4566C31.6771 34.5165 31.5806 34.5489 31.4815 34.5487H31.4802Z" />
  <path
    d="M46.4534 16.7533C46.3954 16.6045 46.295 16.4759 46.1648 16.3835C46.0345 16.291 45.88 16.2388 45.7203 16.2331C44.567 16.204 40.8563 16.7597 39.0484 18.8241C38.0014 20.0203 37.4608 21.0379 36.9835 21.9366C36.5164 22.8163 36.1467 23.5125 35.4326 24.1441C34.5464 24.9251 32.9677 24.9884 31.4383 25.0491C30.5407 25.0846 29.6938 25.1187 28.9493 25.2884C27.8175 25.5415 26.9376 25.9757 26.0856 26.3908C24.8284 27.0035 23.6397 27.5832 21.6457 27.6566C21.0392 27.6794 20.1366 27.53 19.0934 27.3718C16.5841 26.9756 13.143 26.4339 10.2894 27.6515C9.33611 28.0566 8.55624 28.935 8.20176 30.0021C7.87006 31.0007 7.94856 32.0437 8.42838 32.8627C8.68052 33.2924 8.98407 33.6898 9.33232 34.0462C9.50353 33.7968 9.70321 33.5683 9.92735 33.3652C9.6523 33.0748 9.41107 32.7542 9.20825 32.4095C8.86263 31.8146 8.80818 31.04 9.05886 30.2869C9.33232 29.4628 9.92482 28.7882 10.6439 28.4819C11.8289 27.9756 13.1519 27.8072 14.466 27.8072C16.0574 27.8072 17.6311 28.0604 18.9516 28.2629C20.0416 28.435 20.9772 28.5831 21.6786 28.5591C23.8637 28.4793 25.1943 27.8313 26.4819 27.2035C27.3238 26.7934 28.1201 26.406 29.1506 26.1693C29.8128 26.0187 30.6205 25.9858 31.4738 25.9529C33.1627 25.8845 34.9073 25.8149 36.0315 24.8213C36.8683 24.0808 37.3127 23.2454 37.7824 22.3607C38.2356 21.5063 38.7509 20.5367 39.7283 19.4203C41.2665 17.6647 44.5392 17.1419 45.6203 17.1419H45.6343C47.1864 21.0822 46.0723 25.2922 44.091 26.6187C43.3174 27.1351 42.4895 27.5288 41.6121 27.9465C39.8397 28.7907 37.8267 29.7489 35.5352 32.0437C34.8978 32.6805 34.1473 33.193 33.3222 33.5551C33.52 33.7861 33.6876 34.0413 33.821 34.3145C34.6958 33.9137 35.4924 33.3603 36.1733 32.6804C38.361 30.4944 40.2967 29.573 42.0058 28.7565C42.9136 28.3249 43.7707 27.9173 44.5974 27.3642C46.9155 25.8073 48.2182 21.1734 46.4534 16.7533Z" />
  <path
    d="M33.3612 33.0221C32.0231 31.8677 29.9556 31.2994 28.2174 31.6082C27.2776 31.7716 26.3836 32.1342 25.5955 32.6715C25.7245 32.7645 25.8476 32.8655 25.9639 32.974C26.0764 33.0776 26.1822 33.1884 26.2804 33.3056C26.9193 32.903 27.6305 32.6287 28.3744 32.4981C29.8366 32.2386 31.6458 32.7348 32.7713 33.7056C33.303 34.1638 33.9297 34.9385 33.8993 36.0283C33.8335 38.3649 32.1699 39.899 29.4492 40.1332C28.4185 40.2381 27.3772 40.1189 26.3968 39.7838C26.1764 40.0448 25.9152 40.2683 25.6233 40.4458C26.5949 40.8729 27.6473 41.0853 28.7086 41.0686C28.9757 41.0686 29.2492 41.0572 29.5265 41.0331C32.7017 40.7597 34.7172 38.8522 34.802 36.0536C34.8336 34.9043 34.3361 33.8562 33.3612 33.0221Z" />
  <path
    d="M17.7125 38.3802C17.6947 38.3979 17.6808 38.4182 17.6644 38.4372C16.7528 39.408 15.364 39.9257 13.646 39.9346H13.6042C12.0217 39.9346 10.7823 39.4599 10.0214 38.5612C9.3238 37.7359 9.0592 36.5904 9.27569 35.3361C9.62638 33.3108 12.3142 32.3451 13.6182 32.2982C13.6802 32.2982 13.7448 32.2982 13.8106 32.2982C14.9374 32.2982 16.7224 32.6336 17.8049 33.5982C17.9538 33.3406 18.1286 33.0989 18.3265 32.8767C17.0605 31.7982 15.1121 31.3451 13.5852 31.3995C11.9913 31.4578 8.8288 32.6286 8.38569 35.1854C8.12235 36.7043 8.45911 38.1157 9.33267 39.1485C9.9872 39.9219 11.2596 40.8408 13.6042 40.8408H13.6498C15.5615 40.8307 17.1364 40.251 18.2189 39.1625C18.0227 38.9204 17.853 38.6582 17.7125 38.3802Z" />
  <path
    d="M22.4158 41.2801C22.25 41.2801 22.0816 41.2801 21.9094 41.2687C20.137 41.194 18.7253 40.5409 17.8151 39.3827C16.7048 37.9701 16.5782 36.1272 16.8023 34.9779C17.2137 32.9083 18.9127 30.7768 22.4525 30.9945C27.0406 31.2768 27.5343 34.7488 27.5343 36.2284C27.5343 38.0005 27.1241 39.2131 26.2443 40.0561C25.3935 40.8776 24.1363 41.2801 22.4158 41.2801ZM21.9474 31.8831C18.7076 31.8831 17.8961 34.1488 17.6948 35.1563C17.5036 36.1183 17.6075 37.6562 18.5279 38.827C19.2875 39.7865 20.4269 40.3055 21.9461 40.37C23.6439 40.4434 24.8795 40.1169 25.6176 39.4055C26.3063 38.746 26.6304 37.7372 26.6304 36.2297C26.6304 34.3728 25.8961 32.1134 22.3955 31.8983C22.2474 31.8831 22.0942 31.8831 21.9474 31.8831Z" />
  <path
    d="M46.0334 17.3723C45.9553 17.3722 45.8785 17.3519 45.8106 17.3133C45.7427 17.2747 45.686 17.2191 45.6459 17.1521C45.6059 17.085 45.5839 17.0087 45.5821 16.9306C45.5804 16.8526 45.5989 16.7753 45.6359 16.7065C45.665 16.6534 46.3474 15.399 47.2817 14.8079C47.3315 14.7712 47.3883 14.7451 47.4486 14.7313C47.509 14.7175 47.5715 14.7163 47.6323 14.7277C47.6931 14.7391 47.7509 14.7629 47.8022 14.7976C47.8534 14.8323 47.8969 14.8772 47.93 14.9295C47.9631 14.9817 47.9851 15.0402 47.9946 15.1014C48.0041 15.1625 48.0009 15.2249 47.9852 15.2848C47.9695 15.3446 47.9417 15.4006 47.9034 15.4492C47.8651 15.4978 47.8173 15.538 47.7628 15.5674C47.1551 15.9471 46.598 16.823 46.4335 17.1268C46.3959 17.2006 46.3387 17.2626 46.2681 17.3059C46.1975 17.3493 46.1163 17.3722 46.0334 17.3723Z" />
  <path
    d="M10.5484 30.7692C10.4526 30.769 10.3594 30.7383 10.2821 30.6817C10.2049 30.6251 10.1477 30.5455 10.1187 30.4542C10.0896 30.363 10.0904 30.2649 10.1207 30.1741C10.1511 30.0833 10.2095 30.0044 10.2876 29.949C13.3488 27.7858 17.8229 29.3743 18.0103 29.4427C18.1222 29.4841 18.2132 29.5682 18.2634 29.6765C18.3136 29.7849 18.3188 29.9086 18.278 30.0208C18.2372 30.133 18.1537 30.2245 18.0456 30.2753C17.9376 30.3261 17.8138 30.3321 17.7014 30.292C17.6596 30.2768 13.4805 28.7971 10.8079 30.6856C10.7322 30.7398 10.6415 30.7691 10.5484 30.7692Z" />
  <path
    d="M26.048 29.4844C25.9515 29.4841 25.8577 29.4529 25.7802 29.3955C25.7027 29.338 25.6456 29.2572 25.6173 29.165C25.589 29.0728 25.591 28.9739 25.6229 28.8829C25.6549 28.7918 25.7151 28.7134 25.7948 28.6591C25.9214 28.5705 29.0283 26.5073 32.5048 26.9161C32.5659 26.9204 32.6255 26.9369 32.6801 26.9649C32.7346 26.9929 32.7828 27.0317 32.8219 27.0789C32.861 27.1261 32.89 27.1807 32.9073 27.2395C32.9246 27.2983 32.9297 27.36 32.9224 27.4208C32.9151 27.4816 32.8955 27.5404 32.8648 27.5934C32.8341 27.6464 32.7929 27.6926 32.7438 27.7292C32.6947 27.7659 32.6386 27.7921 32.579 27.8064C32.5194 27.8207 32.4575 27.8227 32.3972 27.8123C29.2561 27.4326 26.3202 29.3869 26.2962 29.4072C26.2228 29.4566 26.1365 29.4834 26.048 29.4844Z" />
  <path
    d="M38.7296 23.8302C38.6805 23.8303 38.6317 23.8221 38.5853 23.8062C38.529 23.7874 38.4771 23.7576 38.4324 23.7186C38.3877 23.6796 38.3512 23.6321 38.325 23.5789C38.2987 23.5257 38.2832 23.4679 38.2795 23.4087C38.2757 23.3495 38.2837 23.2902 38.303 23.2341C38.3675 23.0417 39.9488 18.5128 43.8849 18.2508C44.0019 18.2472 44.1157 18.2892 44.2024 18.3679C44.2891 18.4466 44.3419 18.5559 44.3496 18.6727C44.3573 18.7895 44.3194 18.9047 44.2438 18.9941C44.1682 19.0835 44.0609 19.1401 43.9444 19.152C40.6135 19.3735 39.1715 23.4834 39.1575 23.5252C39.1269 23.6143 39.0692 23.6916 38.9925 23.7463C38.9158 23.801 38.8238 23.8303 38.7296 23.8302Z" />
  <path
    d="M10.5482 35.9335C10.4672 35.9332 10.3878 35.9113 10.3183 35.8699C10.2487 35.8286 10.1916 35.7693 10.1528 35.6983C10.114 35.6273 10.0949 35.5472 10.0977 35.4663C10.1004 35.3854 10.1248 35.3068 10.1683 35.2386C11.8306 32.6311 14.8298 33.0741 14.9564 33.0944C15.065 33.1224 15.1591 33.1899 15.2206 33.2836C15.282 33.3773 15.3064 33.4905 15.2888 33.6012C15.2713 33.7119 15.2131 33.8121 15.1256 33.8822C15.0382 33.9523 14.9278 33.9873 14.8159 33.9804C14.7083 33.9652 12.2687 33.6197 10.9305 35.7196C10.89 35.7845 10.8336 35.8382 10.7668 35.8756C10.7 35.913 10.6247 35.9329 10.5482 35.9335Z" />
  <path
    d="M19.0391 35.6879C18.9735 35.6881 18.9087 35.6739 18.8492 35.6461C18.7413 35.5955 18.6577 35.5044 18.6167 35.3925C18.5757 35.2806 18.5805 35.157 18.6302 35.0487C18.6467 35.0145 20.2495 31.6742 24.3666 33.2272C24.425 33.2459 24.4791 33.2762 24.5254 33.3164C24.5717 33.3566 24.6094 33.4058 24.6361 33.461C24.6628 33.5163 24.678 33.5763 24.6807 33.6376C24.6835 33.6989 24.6737 33.7601 24.652 33.8175C24.6303 33.8748 24.5972 33.9272 24.5546 33.9714C24.5121 34.0155 24.4609 34.0506 24.4044 34.0743C24.3478 34.0981 24.287 34.1101 24.2257 34.1096C24.1643 34.1091 24.1037 34.0962 24.0475 34.0715C20.7293 32.8209 19.5 35.3221 19.4493 35.4297C19.4124 35.5071 19.3543 35.5725 19.2817 35.6182C19.209 35.6639 19.1249 35.6881 19.0391 35.6879Z" />
</svg>