<svg width="56" height="56" viewBox="0 0 56 56" fill="currentColor" stroke="currentColor"
  xmlns="http://www.w3.org/2000/svg">
  <path
    d="M37.7747 51.6617H18.2201C16.996 51.6612 15.7922 51.3497 14.7216 50.7565C13.6509 50.1633 12.7486 49.3078 12.0994 48.2703C11.4501 47.2328 11.0752 46.0474 11.0098 44.8254C10.9444 43.6033 11.1907 42.3847 11.7256 41.2839L22.1088 19.9596V9.0363C22.1088 8.95888 22.1241 8.88223 22.1538 8.81072C22.1835 8.73922 22.227 8.67427 22.2818 8.6196C22.3367 8.56493 22.4017 8.52162 22.4733 8.49214C22.5449 8.46266 22.6217 8.4476 22.6991 8.44782H33.2973C33.4534 8.44782 33.6031 8.50982 33.7135 8.62018C33.8239 8.73055 33.8859 8.88023 33.8859 9.0363V19.9596L44.2708 41.2839C44.8071 42.3852 45.0546 43.6048 44.9898 44.8279C44.9251 46.0511 44.5503 47.2378 43.9007 48.2763C43.2511 49.3149 42.3481 50.1712 41.2765 50.7649C40.2049 51.3585 38.9998 51.67 37.7747 51.67V51.6617ZM23.2894 9.62644V20.0919C23.2889 20.1817 23.2686 20.2703 23.2298 20.3514L12.7854 41.7931C12.3365 42.7144 12.1293 43.7348 12.1834 44.7583C12.2374 45.7817 12.5509 46.7746 13.0944 47.6436C13.6379 48.5126 14.3934 49.2291 15.2901 49.7259C16.1867 50.2226 17.195 50.4832 18.2201 50.4831H37.7747C38.7997 50.483 39.8079 50.2223 40.7045 49.7256C41.6012 49.2289 42.3568 48.5124 42.9003 47.6435C43.4439 46.7746 43.7576 45.7819 43.8119 44.7584C43.8663 43.735 43.6595 42.7146 43.211 41.7931L32.7666 20.3514C32.727 20.2706 32.7067 20.1818 32.7071 20.0919V9.62644H23.2894Z" />
  <path
    d="M22.4213 28.5868C22.332 28.5864 22.2439 28.5661 22.1634 28.5273C22.0228 28.4583 21.9154 28.3363 21.8646 28.1882C21.8137 28.0401 21.8237 27.8779 21.8922 27.7372L24.4583 22.5069C24.4911 22.4354 24.538 22.3711 24.5961 22.3179C24.6542 22.2648 24.7223 22.2238 24.7965 22.1973C24.8707 22.1709 24.9494 22.1595 25.028 22.164C25.1067 22.1684 25.1836 22.1886 25.2544 22.2232C25.3251 22.2579 25.3882 22.3063 25.4399 22.3657C25.4916 22.4251 25.5309 22.4942 25.5555 22.569C25.58 22.6438 25.5894 22.7228 25.583 22.8013C25.5766 22.8798 25.5545 22.9562 25.5181 23.026L22.9521 28.2562C22.9036 28.3556 22.8281 28.4393 22.7342 28.4978C22.6404 28.5563 22.5319 28.5871 22.4213 28.5868Z" />
  <path
    d="M34.2791 9.6264H21.7134C21.053 9.62465 20.4201 9.36136 19.9534 8.89416C19.4868 8.42695 19.2243 7.7939 19.2234 7.13361V6.82284C19.2238 6.16213 19.4864 5.52858 19.9536 5.06124C20.4207 4.59389 21.0542 4.33092 21.7151 4.33005H34.2808C34.9418 4.33092 35.5754 4.59384 36.0428 5.06113C36.5102 5.52843 36.7732 6.16198 36.7741 6.82284V7.13361C36.7732 7.79475 36.51 8.42855 36.0423 8.8959C35.5745 9.36325 34.9404 9.62597 34.2791 9.6264ZM21.7134 5.50867C21.3657 5.51127 21.0331 5.65061 20.7874 5.89655C20.5417 6.14249 20.4028 6.47526 20.4006 6.82284V7.13361C20.4006 7.48263 20.5386 7.81751 20.7845 8.06523C21.0304 8.31295 21.3643 8.45343 21.7134 8.45604H34.2791C34.6299 8.45604 34.9664 8.31672 35.2144 8.06871C35.4625 7.82071 35.6018 7.48434 35.6018 7.13361V6.82284C35.5997 6.47355 35.4593 6.1393 35.2115 5.89308C34.9637 5.64686 34.6285 5.50866 34.2791 5.50867H21.7134Z" />
  <path
    d="M22.0924 32.1741C20.4537 32.1617 18.8174 32.0458 17.1934 31.8269C17.0417 31.8031 16.9052 31.7212 16.8129 31.5984C16.7207 31.4757 16.6799 31.3218 16.6993 31.1695C16.7187 31.0172 16.7966 30.8784 16.9167 30.7826C17.0367 30.6869 17.1894 30.6416 17.3422 30.6566C23.3705 31.4236 25.8588 30.7657 28.7406 29.9953C31.0455 29.387 33.4214 28.7539 37.8194 28.7737C37.9759 28.7737 38.1261 28.8359 38.2368 28.9466C38.3474 29.0573 38.4096 29.2074 38.4096 29.3639C38.4096 29.5204 38.3474 29.6705 38.2368 29.7812C38.1261 29.8918 37.9759 29.954 37.8194 29.954C33.5817 29.9375 31.2769 30.5475 29.0481 31.1359C27.0558 31.6699 25.1462 32.1741 22.0924 32.1741Z" />
  <path
    d="M37.8162 47.8283C37.3846 47.8283 36.9626 47.7003 36.6037 47.4606C36.2448 47.2208 35.9651 46.88 35.7999 46.4813C35.6347 46.0826 35.5915 45.6439 35.6757 45.2206C35.7599 44.7973 35.9678 44.4085 36.273 44.1034C36.5782 43.7982 36.9671 43.5904 37.3905 43.5062C37.8138 43.422 38.2527 43.4652 38.6515 43.6304C39.0502 43.7955 39.3911 44.0752 39.6309 44.434C39.8707 44.7928 39.9987 45.2147 39.9987 45.6463C39.9983 46.2249 39.7682 46.7796 39.359 47.1887C38.9498 47.5978 38.3949 47.8279 37.8162 47.8283ZM37.8162 44.6445C37.6181 44.6445 37.4244 44.7033 37.2596 44.8134C37.0948 44.9234 36.9664 45.0799 36.8906 45.2629C36.8147 45.446 36.7949 45.6474 36.8335 45.8417C36.8722 46.036 36.9677 46.2145 37.1078 46.3546C37.2479 46.4947 37.4264 46.5901 37.6208 46.6288C37.8152 46.6674 38.0166 46.6476 38.1997 46.5718C38.3828 46.496 38.5393 46.3676 38.6494 46.2028C38.7595 46.0381 38.8182 45.8444 38.8182 45.6463C38.8178 45.3807 38.7121 45.1262 38.5243 44.9384C38.3365 44.7507 38.0818 44.645 37.8162 44.6445Z" />
  <path
    d="M20.8981 38.1829C20.47 38.1832 20.0514 38.0566 19.6953 37.819C19.3391 37.5814 19.0615 37.2436 18.8974 36.8482C18.7333 36.4529 18.6902 36.0178 18.7736 35.5979C18.8569 35.1781 19.0629 34.7923 19.3655 34.4896C19.6681 34.1868 20.0537 33.9805 20.4736 33.8969C20.8935 33.8133 21.3287 33.856 21.7243 34.0198C22.1199 34.1835 22.458 34.4608 22.6959 34.8167C22.9338 35.1726 23.0607 35.591 23.0607 36.019C23.0603 36.5925 22.8324 37.1424 22.427 37.548C22.0215 37.9537 21.4717 38.182 20.8981 38.1829ZM20.8981 35.0421C20.7012 35.0404 20.5083 35.0974 20.3439 35.2058C20.1795 35.3141 20.051 35.469 19.9749 35.6505C19.8988 35.8321 19.8785 36.0322 19.9165 36.2254C19.9545 36.4185 20.0492 36.596 20.1884 36.7352C20.3277 36.8744 20.5052 36.969 20.6984 37.007C20.8916 37.045 21.0917 37.0247 21.2733 36.9486C21.4549 36.8725 21.6098 36.7441 21.7181 36.5798C21.8265 36.4154 21.8835 36.2225 21.8819 36.0256C21.8815 35.7643 21.7779 35.5137 21.5937 35.3283C21.4095 35.1429 21.1595 35.0376 20.8981 35.0355V35.0421Z" />
  <path
    d="M19.3887 47.6448C18.9636 47.6448 18.548 47.5188 18.1945 47.2827C17.8411 47.0465 17.5656 46.7109 17.4029 46.3182C17.2402 45.9256 17.1976 45.4935 17.2806 45.0766C17.3635 44.6598 17.5682 44.2768 17.8688 43.9763C18.1694 43.6758 18.5524 43.4711 18.9693 43.3882C19.3863 43.3053 19.8185 43.3478 20.2112 43.5105C20.604 43.6731 20.9396 43.9486 21.1758 44.302C21.412 44.6553 21.5381 45.0708 21.5381 45.4959C21.5381 46.0658 21.3116 46.6124 20.9085 47.0154C20.5054 47.4184 19.9587 47.6448 19.3887 47.6448ZM19.3887 44.5305C19.1969 44.5302 19.0093 44.5867 18.8497 44.693C18.6902 44.7994 18.5657 44.9506 18.4922 45.1277C18.4186 45.3048 18.3993 45.4997 18.4367 45.6877C18.474 45.8758 18.5663 46.0485 18.7019 46.1841C18.8375 46.3197 19.0103 46.412 19.1984 46.4493C19.3865 46.4866 19.5814 46.4673 19.7585 46.3938C19.9356 46.3203 20.087 46.1959 20.1933 46.0363C20.2997 45.8767 20.3562 45.6892 20.3559 45.4975C20.3555 45.2412 20.2534 44.9955 20.0721 44.8142C19.8908 44.6329 19.6451 44.5309 19.3887 44.5305Z" />
  <path
    d="M29.1951 42.8246C28.684 42.823 28.1848 42.6699 27.7607 42.3849C27.3365 42.0998 27.0064 41.6954 26.8119 41.2229C26.6175 40.7503 26.5674 40.2308 26.6681 39.7298C26.7688 39.2288 27.0158 38.7689 27.3778 38.4082C27.7397 38.0474 28.2005 37.802 28.7019 37.7029C29.2033 37.6039 29.7228 37.6555 30.1948 37.8515C30.6668 38.0474 31.0702 38.3788 31.354 38.8037C31.6378 39.2287 31.7892 39.7282 31.7892 40.2392C31.789 40.5794 31.7217 40.9161 31.5912 41.2302C31.4606 41.5444 31.2694 41.8296 31.0284 42.0698C30.7875 42.3099 30.5015 42.5002 30.1869 42.6297C29.8724 42.7592 29.5353 42.8255 29.1951 42.8246ZM29.1951 38.8341C28.9167 38.8341 28.6446 38.9167 28.4132 39.0713C28.1818 39.226 28.0014 39.4458 27.895 39.7029C27.7885 39.9601 27.7608 40.243 27.8152 40.5159C27.8696 40.7888 28.0038 41.0395 28.2007 41.2362C28.3977 41.4328 28.6485 41.5667 28.9216 41.6208C29.1946 41.6749 29.4776 41.6468 29.7346 41.5401C29.9917 41.4333 30.2114 41.2528 30.3658 41.0212C30.5202 40.7897 30.6024 40.5175 30.6021 40.2392C30.6017 39.8664 30.4532 39.509 30.1894 39.2456C29.9256 38.9821 29.568 38.8341 29.1951 38.8341Z" />
  <path
    d="M35.5094 36.8638C35.0695 36.8624 34.6399 36.7308 34.2748 36.4856C33.9097 36.2403 33.6255 35.8923 33.458 35.4857C33.2906 35.079 33.2475 34.6318 33.3341 34.2006C33.4207 33.7695 33.6332 33.3736 33.9447 33.0631C34.2562 32.7526 34.6527 32.5413 35.0842 32.456C35.5158 32.3707 35.9629 32.4152 36.3692 32.5838C36.7754 32.7524 37.1226 33.0375 37.3669 33.4033C37.6111 33.769 37.7415 34.199 37.7415 34.6387C37.7412 34.9314 37.6833 35.2212 37.571 35.4915C37.4587 35.7618 37.2941 36.0073 37.0868 36.2139C36.8795 36.4206 36.6335 36.5843 36.3628 36.6958C36.0921 36.8073 35.8021 36.8644 35.5094 36.8638ZM35.5094 33.5924C35.3023 33.592 35.0998 33.6531 34.9275 33.7679C34.7551 33.8827 34.6208 34.046 34.5413 34.2372C34.4618 34.4283 34.4409 34.6388 34.4811 34.8419C34.5213 35.045 34.6208 35.2316 34.7671 35.3781C34.9134 35.5246 35.0999 35.6244 35.3029 35.6649C35.506 35.7054 35.7165 35.6848 35.9079 35.6056C36.0992 35.5265 36.2627 35.3924 36.3778 35.2203C36.4929 35.0481 36.5543 34.8458 36.5543 34.6387C36.5539 34.3617 36.4437 34.096 36.2479 33.8999C36.0521 33.7038 35.7865 33.5932 35.5094 33.5924Z" />
</svg>